%TF.GenerationSoftware,KiCad,Pcbnew,9.0.9-9.0.9~ubuntu24.04.1*%
%TF.CreationDate,2026-09-14T23:26:30+00:00*%
%TF.ProjectId,GR86_CCA_RevB,47523836-5f43-4434-915f-526576422e6b,rev?*%
%TF.SameCoordinates,Original*%
%TF.FileFunction,Profile,NP*%
%FSLAX46Y46*%
G04 Gerber Fmt 4.6, Leading zero omitted, Abs format (unit mm)*
G04 Created by KiCad (PCBNEW 9.0.9-9.0.9~ubuntu24.04.1) date 2026-09-14 23:26:30*
%MOMM*%
%LPD*%
G01*
G04 APERTURE LIST*
%TA.AperFunction,Profile*%
%ADD10C,0.050000*%
%TD*%
G04 APERTURE END LIST*
D10*
X0Y-980947D02*
G75*
G02*
X287315Y-287313I980950J-3D01*
G01*
X2Y-2834492D02*
X0Y-980947D01*
X0Y-37820272D02*
X2Y-2834492D01*
X0Y-40003105D02*
X0Y-37820272D01*
X287314Y-287312D02*
G75*
G02*
X980942Y0I693626J-693618D01*
G01*
X337314Y-40817452D02*
G75*
G02*
X0Y-40003105I814356J814352D01*
G01*
X980942Y0D02*
X2700000Y0D01*
X1475399Y-41288863D02*
G75*
G02*
X337312Y-40817454I-9J1609483D01*
G01*
X2557101Y-41288863D02*
X1475399Y-41288863D01*
X2700000Y6500000D02*
X3200000Y7000000D01*
X2700000Y0D02*
X2700000Y6500000D01*
X2700000Y-41288804D02*
X2557101Y-41288863D01*
X2700000Y-47787355D02*
X2700000Y-41288804D01*
X3200000Y7000000D02*
X9200000Y7000000D01*
X3200000Y-48287355D02*
X2700000Y-47787355D01*
X9200000Y7000000D02*
X9700000Y6500000D01*
X9200000Y-48287355D02*
X3200000Y-48287355D01*
X9700000Y6500000D02*
X9700000Y0D01*
X9700000Y0D02*
X13000000Y0D01*
X9700000Y-41285906D02*
X9700000Y-47787355D01*
X9700000Y-47787355D02*
X9200000Y-48287355D01*
X13000000Y9500000D02*
X13500000Y10000000D01*
X13000000Y0D02*
X13000000Y9500000D01*
X13000000Y-41284540D02*
X9700000Y-41285906D01*
X13000000Y-50775846D02*
X13000000Y-41284540D01*
X13500000Y10000000D02*
X54500000Y10000000D01*
X13500000Y-51275846D02*
X13000000Y-50775846D01*
X54500000Y10000000D02*
X55000000Y9500000D01*
X54500000Y-51275846D02*
X13500000Y-51275846D01*
X55000000Y9500000D02*
X55000000Y0D01*
X55000000Y0D02*
X59500000Y0D01*
X55000000Y-41267152D02*
X55000000Y-50775846D01*
X55000000Y-50775846D02*
X54500000Y-51275846D01*
X59500000Y6500000D02*
X60000000Y7000000D01*
X59500000Y0D02*
X59500000Y6500000D01*
X59500000Y-41265290D02*
X55000000Y-41267152D01*
X59500000Y-47763841D02*
X59500000Y-41265290D01*
X60000000Y7000000D02*
X66000000Y7000000D01*
X60000000Y-48263841D02*
X59500000Y-47763841D01*
X66000000Y7000000D02*
X66500000Y6500000D01*
X66000000Y-48263841D02*
X60000000Y-48263841D01*
X66500000Y6500000D02*
X66500000Y0D01*
X66500000Y0D02*
X76500000Y0D01*
X66500000Y-41262392D02*
X66500000Y-47763841D01*
X66500000Y-47763841D02*
X66000000Y-48263841D01*
X76500000Y0D02*
X77000000Y500000D01*
X77000000Y7500000D02*
X77500000Y8000000D01*
X77000000Y500000D02*
X77000000Y7500000D01*
X77500000Y8000000D02*
X86400000Y8000000D01*
X84927437Y-41254763D02*
X66500000Y-41262392D01*
X85978852Y-41254763D02*
X84927437Y-41254763D01*
X86400000Y8000000D02*
X86900000Y7500000D01*
X86900000Y7500000D02*
X86900000Y500000D01*
X86900000Y500000D02*
X87273825Y0D01*
X87273825Y0D02*
X87279325Y-119D01*
X87279325Y-119D02*
G75*
G02*
X88254732Y-1018623I-44025J-1018481D01*
G01*
X87517455Y-40617452D02*
G75*
G02*
X85978852Y-41254714I-1538555J1538652D01*
G01*
X88254766Y-1018623D02*
X88254766Y-38837428D01*
X88254766Y-38837428D02*
G75*
G02*
X87517427Y-40617424I-2517266J28D01*
G01*
M02*
