%TF.GenerationSoftware,KiCad,Pcbnew,9.0.9*%
%TF.CreationDate,2026-09-15T21:31:02+00:00*%
%TF.ProjectId,GR86_CCA_RevB,47523836-5f43-4434-915f-526576422e6b,rev?*%
%TF.SameCoordinates,Original*%
%TF.FileFunction,Legend,Bot*%
%TF.FilePolarity,Positive*%
%FSLAX46Y46*%
G04 Gerber Fmt 4.6, Leading zero omitted, Abs format (unit mm)*
G04 Created by KiCad (PCBNEW 9.0.9) date 2026-09-15 21:31:02*
%MOMM*%
%LPD*%
G01*
G04 APERTURE LIST*
%ADD10C,0.150000*%
%ADD11C,0.175000*%
G04 APERTURE END LIST*
D10*
X6500000Y-23200000D02*
X6500000Y-23800000D01*
X6500000Y-23800000D02*
X7100000Y-23500000D01*
X7100000Y-23500000D02*
X6500000Y-23200000D01*
D11*
X41787500Y-5800000D02*
G75*
G02*
X41612500Y-5800000I-87500J0D01*
G01*
X41612500Y-5800000D02*
G75*
G02*
X41787500Y-5800000I87500J0D01*
G01*
X77787500Y1700000D02*
G75*
G02*
X77612500Y1700000I-87500J0D01*
G01*
X77612500Y1700000D02*
G75*
G02*
X77787500Y1700000I87500J0D01*
G01*
D10*
X6047618Y-24681009D02*
X6380951Y-24681009D01*
X6380951Y-25204819D02*
X6380951Y-24204819D01*
X6380951Y-24204819D02*
X5904761Y-24204819D01*
X4999999Y-25204819D02*
X5571427Y-25204819D01*
X5285713Y-25204819D02*
X5285713Y-24204819D01*
X5285713Y-24204819D02*
X5380951Y-24347676D01*
X5380951Y-24347676D02*
X5476189Y-24442914D01*
X5476189Y-24442914D02*
X5571427Y-24490533D01*
X4571427Y-25109580D02*
X4523808Y-25157200D01*
X4523808Y-25157200D02*
X4571427Y-25204819D01*
X4571427Y-25204819D02*
X4619046Y-25157200D01*
X4619046Y-25157200D02*
X4571427Y-25109580D01*
X4571427Y-25109580D02*
X4571427Y-25204819D01*
X4571427Y-24585771D02*
X4523808Y-24633390D01*
X4523808Y-24633390D02*
X4571427Y-24681009D01*
X4571427Y-24681009D02*
X4619046Y-24633390D01*
X4619046Y-24633390D02*
X4571427Y-24585771D01*
X4571427Y-24585771D02*
X4571427Y-24681009D01*
X3571428Y-25204819D02*
X4142856Y-25204819D01*
X3857142Y-25204819D02*
X3857142Y-24204819D01*
X3857142Y-24204819D02*
X3952380Y-24347676D01*
X3952380Y-24347676D02*
X4047618Y-24442914D01*
X4047618Y-24442914D02*
X4142856Y-24490533D01*
X7285713Y-15254819D02*
X6666666Y-15254819D01*
X6666666Y-15254819D02*
X6999999Y-15635771D01*
X6999999Y-15635771D02*
X6857142Y-15635771D01*
X6857142Y-15635771D02*
X6761904Y-15683390D01*
X6761904Y-15683390D02*
X6714285Y-15731009D01*
X6714285Y-15731009D02*
X6666666Y-15826247D01*
X6666666Y-15826247D02*
X6666666Y-16064342D01*
X6666666Y-16064342D02*
X6714285Y-16159580D01*
X6714285Y-16159580D02*
X6761904Y-16207200D01*
X6761904Y-16207200D02*
X6857142Y-16254819D01*
X6857142Y-16254819D02*
X7142856Y-16254819D01*
X7142856Y-16254819D02*
X7238094Y-16207200D01*
X7238094Y-16207200D02*
X7285713Y-16159580D01*
X6047618Y-15254819D02*
X5952380Y-15254819D01*
X5952380Y-15254819D02*
X5857142Y-15302438D01*
X5857142Y-15302438D02*
X5809523Y-15350057D01*
X5809523Y-15350057D02*
X5761904Y-15445295D01*
X5761904Y-15445295D02*
X5714285Y-15635771D01*
X5714285Y-15635771D02*
X5714285Y-15873866D01*
X5714285Y-15873866D02*
X5761904Y-16064342D01*
X5761904Y-16064342D02*
X5809523Y-16159580D01*
X5809523Y-16159580D02*
X5857142Y-16207200D01*
X5857142Y-16207200D02*
X5952380Y-16254819D01*
X5952380Y-16254819D02*
X6047618Y-16254819D01*
X6047618Y-16254819D02*
X6142856Y-16207200D01*
X6142856Y-16207200D02*
X6190475Y-16159580D01*
X6190475Y-16159580D02*
X6238094Y-16064342D01*
X6238094Y-16064342D02*
X6285713Y-15873866D01*
X6285713Y-15873866D02*
X6285713Y-15635771D01*
X6285713Y-15635771D02*
X6238094Y-15445295D01*
X6238094Y-15445295D02*
X6190475Y-15350057D01*
X6190475Y-15350057D02*
X6142856Y-15302438D01*
X6142856Y-15302438D02*
X6047618Y-15254819D01*
X5333332Y-15350057D02*
X5285713Y-15302438D01*
X5285713Y-15302438D02*
X5190475Y-15254819D01*
X5190475Y-15254819D02*
X4952380Y-15254819D01*
X4952380Y-15254819D02*
X4857142Y-15302438D01*
X4857142Y-15302438D02*
X4809523Y-15350057D01*
X4809523Y-15350057D02*
X4761904Y-15445295D01*
X4761904Y-15445295D02*
X4761904Y-15540533D01*
X4761904Y-15540533D02*
X4809523Y-15683390D01*
X4809523Y-15683390D02*
X5380951Y-16254819D01*
X5380951Y-16254819D02*
X4761904Y-16254819D01*
X8285713Y-3654819D02*
X7666666Y-3654819D01*
X7666666Y-3654819D02*
X7999999Y-4035771D01*
X7999999Y-4035771D02*
X7857142Y-4035771D01*
X7857142Y-4035771D02*
X7761904Y-4083390D01*
X7761904Y-4083390D02*
X7714285Y-4131009D01*
X7714285Y-4131009D02*
X7666666Y-4226247D01*
X7666666Y-4226247D02*
X7666666Y-4464342D01*
X7666666Y-4464342D02*
X7714285Y-4559580D01*
X7714285Y-4559580D02*
X7761904Y-4607200D01*
X7761904Y-4607200D02*
X7857142Y-4654819D01*
X7857142Y-4654819D02*
X8142856Y-4654819D01*
X8142856Y-4654819D02*
X8238094Y-4607200D01*
X8238094Y-4607200D02*
X8285713Y-4559580D01*
X7047618Y-3654819D02*
X6952380Y-3654819D01*
X6952380Y-3654819D02*
X6857142Y-3702438D01*
X6857142Y-3702438D02*
X6809523Y-3750057D01*
X6809523Y-3750057D02*
X6761904Y-3845295D01*
X6761904Y-3845295D02*
X6714285Y-4035771D01*
X6714285Y-4035771D02*
X6714285Y-4273866D01*
X6714285Y-4273866D02*
X6761904Y-4464342D01*
X6761904Y-4464342D02*
X6809523Y-4559580D01*
X6809523Y-4559580D02*
X6857142Y-4607200D01*
X6857142Y-4607200D02*
X6952380Y-4654819D01*
X6952380Y-4654819D02*
X7047618Y-4654819D01*
X7047618Y-4654819D02*
X7142856Y-4607200D01*
X7142856Y-4607200D02*
X7190475Y-4559580D01*
X7190475Y-4559580D02*
X7238094Y-4464342D01*
X7238094Y-4464342D02*
X7285713Y-4273866D01*
X7285713Y-4273866D02*
X7285713Y-4035771D01*
X7285713Y-4035771D02*
X7238094Y-3845295D01*
X7238094Y-3845295D02*
X7190475Y-3750057D01*
X7190475Y-3750057D02*
X7142856Y-3702438D01*
X7142856Y-3702438D02*
X7047618Y-3654819D01*
X5761904Y-4654819D02*
X6333332Y-4654819D01*
X6047618Y-4654819D02*
X6047618Y-3654819D01*
X6047618Y-3654819D02*
X6142856Y-3797676D01*
X6142856Y-3797676D02*
X6238094Y-3892914D01*
X6238094Y-3892914D02*
X6333332Y-3940533D01*
X11994285Y-35454819D02*
X12470475Y-35454819D01*
X12470475Y-35454819D02*
X12518094Y-35931009D01*
X12518094Y-35931009D02*
X12470475Y-35883390D01*
X12470475Y-35883390D02*
X12375237Y-35835771D01*
X12375237Y-35835771D02*
X12137142Y-35835771D01*
X12137142Y-35835771D02*
X12041904Y-35883390D01*
X12041904Y-35883390D02*
X11994285Y-35931009D01*
X11994285Y-35931009D02*
X11946666Y-36026247D01*
X11946666Y-36026247D02*
X11946666Y-36264342D01*
X11946666Y-36264342D02*
X11994285Y-36359580D01*
X11994285Y-36359580D02*
X12041904Y-36407200D01*
X12041904Y-36407200D02*
X12137142Y-36454819D01*
X12137142Y-36454819D02*
X12375237Y-36454819D01*
X12375237Y-36454819D02*
X12470475Y-36407200D01*
X12470475Y-36407200D02*
X12518094Y-36359580D01*
X11327618Y-35454819D02*
X11232380Y-35454819D01*
X11232380Y-35454819D02*
X11137142Y-35502438D01*
X11137142Y-35502438D02*
X11089523Y-35550057D01*
X11089523Y-35550057D02*
X11041904Y-35645295D01*
X11041904Y-35645295D02*
X10994285Y-35835771D01*
X10994285Y-35835771D02*
X10994285Y-36073866D01*
X10994285Y-36073866D02*
X11041904Y-36264342D01*
X11041904Y-36264342D02*
X11089523Y-36359580D01*
X11089523Y-36359580D02*
X11137142Y-36407200D01*
X11137142Y-36407200D02*
X11232380Y-36454819D01*
X11232380Y-36454819D02*
X11327618Y-36454819D01*
X11327618Y-36454819D02*
X11422856Y-36407200D01*
X11422856Y-36407200D02*
X11470475Y-36359580D01*
X11470475Y-36359580D02*
X11518094Y-36264342D01*
X11518094Y-36264342D02*
X11565713Y-36073866D01*
X11565713Y-36073866D02*
X11565713Y-35835771D01*
X11565713Y-35835771D02*
X11518094Y-35645295D01*
X11518094Y-35645295D02*
X11470475Y-35550057D01*
X11470475Y-35550057D02*
X11422856Y-35502438D01*
X11422856Y-35502438D02*
X11327618Y-35454819D01*
X10660951Y-35454819D02*
X9994285Y-35454819D01*
X9994285Y-35454819D02*
X10422856Y-36454819D01*
X14357142Y-40231009D02*
X14214285Y-40278628D01*
X14214285Y-40278628D02*
X14166666Y-40326247D01*
X14166666Y-40326247D02*
X14119047Y-40421485D01*
X14119047Y-40421485D02*
X14119047Y-40564342D01*
X14119047Y-40564342D02*
X14166666Y-40659580D01*
X14166666Y-40659580D02*
X14214285Y-40707200D01*
X14214285Y-40707200D02*
X14309523Y-40754819D01*
X14309523Y-40754819D02*
X14690475Y-40754819D01*
X14690475Y-40754819D02*
X14690475Y-39754819D01*
X14690475Y-39754819D02*
X14357142Y-39754819D01*
X14357142Y-39754819D02*
X14261904Y-39802438D01*
X14261904Y-39802438D02*
X14214285Y-39850057D01*
X14214285Y-39850057D02*
X14166666Y-39945295D01*
X14166666Y-39945295D02*
X14166666Y-40040533D01*
X14166666Y-40040533D02*
X14214285Y-40135771D01*
X14214285Y-40135771D02*
X14261904Y-40183390D01*
X14261904Y-40183390D02*
X14357142Y-40231009D01*
X14357142Y-40231009D02*
X14690475Y-40231009D01*
X13499999Y-39754819D02*
X13309523Y-39754819D01*
X13309523Y-39754819D02*
X13214285Y-39802438D01*
X13214285Y-39802438D02*
X13119047Y-39897676D01*
X13119047Y-39897676D02*
X13071428Y-40088152D01*
X13071428Y-40088152D02*
X13071428Y-40421485D01*
X13071428Y-40421485D02*
X13119047Y-40611961D01*
X13119047Y-40611961D02*
X13214285Y-40707200D01*
X13214285Y-40707200D02*
X13309523Y-40754819D01*
X13309523Y-40754819D02*
X13499999Y-40754819D01*
X13499999Y-40754819D02*
X13595237Y-40707200D01*
X13595237Y-40707200D02*
X13690475Y-40611961D01*
X13690475Y-40611961D02*
X13738094Y-40421485D01*
X13738094Y-40421485D02*
X13738094Y-40088152D01*
X13738094Y-40088152D02*
X13690475Y-39897676D01*
X13690475Y-39897676D02*
X13595237Y-39802438D01*
X13595237Y-39802438D02*
X13499999Y-39754819D01*
X12452380Y-39754819D02*
X12261904Y-39754819D01*
X12261904Y-39754819D02*
X12166666Y-39802438D01*
X12166666Y-39802438D02*
X12071428Y-39897676D01*
X12071428Y-39897676D02*
X12023809Y-40088152D01*
X12023809Y-40088152D02*
X12023809Y-40421485D01*
X12023809Y-40421485D02*
X12071428Y-40611961D01*
X12071428Y-40611961D02*
X12166666Y-40707200D01*
X12166666Y-40707200D02*
X12261904Y-40754819D01*
X12261904Y-40754819D02*
X12452380Y-40754819D01*
X12452380Y-40754819D02*
X12547618Y-40707200D01*
X12547618Y-40707200D02*
X12642856Y-40611961D01*
X12642856Y-40611961D02*
X12690475Y-40421485D01*
X12690475Y-40421485D02*
X12690475Y-40088152D01*
X12690475Y-40088152D02*
X12642856Y-39897676D01*
X12642856Y-39897676D02*
X12547618Y-39802438D01*
X12547618Y-39802438D02*
X12452380Y-39754819D01*
X11738094Y-39754819D02*
X11166666Y-39754819D01*
X11452380Y-40754819D02*
X11452380Y-39754819D01*
X21190476Y-931009D02*
X21047619Y-978628D01*
X21047619Y-978628D02*
X21000000Y-1026247D01*
X21000000Y-1026247D02*
X20952381Y-1121485D01*
X20952381Y-1121485D02*
X20952381Y-1264342D01*
X20952381Y-1264342D02*
X21000000Y-1359580D01*
X21000000Y-1359580D02*
X21047619Y-1407200D01*
X21047619Y-1407200D02*
X21142857Y-1454819D01*
X21142857Y-1454819D02*
X21523809Y-1454819D01*
X21523809Y-1454819D02*
X21523809Y-454819D01*
X21523809Y-454819D02*
X21190476Y-454819D01*
X21190476Y-454819D02*
X21095238Y-502438D01*
X21095238Y-502438D02*
X21047619Y-550057D01*
X21047619Y-550057D02*
X21000000Y-645295D01*
X21000000Y-645295D02*
X21000000Y-740533D01*
X21000000Y-740533D02*
X21047619Y-835771D01*
X21047619Y-835771D02*
X21095238Y-883390D01*
X21095238Y-883390D02*
X21190476Y-931009D01*
X21190476Y-931009D02*
X21523809Y-931009D01*
X20523809Y-931009D02*
X20190476Y-931009D01*
X20047619Y-1454819D02*
X20523809Y-1454819D01*
X20523809Y-1454819D02*
X20523809Y-454819D01*
X20523809Y-454819D02*
X20047619Y-454819D01*
X19619047Y-1454819D02*
X19619047Y-454819D01*
X19619047Y-454819D02*
X19047619Y-1454819D01*
X19047619Y-1454819D02*
X19047619Y-454819D01*
X18000000Y-1359580D02*
X18047619Y-1407200D01*
X18047619Y-1407200D02*
X18190476Y-1454819D01*
X18190476Y-1454819D02*
X18285714Y-1454819D01*
X18285714Y-1454819D02*
X18428571Y-1407200D01*
X18428571Y-1407200D02*
X18523809Y-1311961D01*
X18523809Y-1311961D02*
X18571428Y-1216723D01*
X18571428Y-1216723D02*
X18619047Y-1026247D01*
X18619047Y-1026247D02*
X18619047Y-883390D01*
X18619047Y-883390D02*
X18571428Y-692914D01*
X18571428Y-692914D02*
X18523809Y-597676D01*
X18523809Y-597676D02*
X18428571Y-502438D01*
X18428571Y-502438D02*
X18285714Y-454819D01*
X18285714Y-454819D02*
X18190476Y-454819D01*
X18190476Y-454819D02*
X18047619Y-502438D01*
X18047619Y-502438D02*
X18000000Y-550057D01*
X17571428Y-1454819D02*
X17571428Y-454819D01*
X17571428Y-931009D02*
X17000000Y-931009D01*
X17000000Y-1454819D02*
X17000000Y-454819D01*
X15571428Y-454819D02*
X15380952Y-454819D01*
X15380952Y-454819D02*
X15285714Y-502438D01*
X15285714Y-502438D02*
X15190476Y-597676D01*
X15190476Y-597676D02*
X15142857Y-788152D01*
X15142857Y-788152D02*
X15142857Y-1121485D01*
X15142857Y-1121485D02*
X15190476Y-1311961D01*
X15190476Y-1311961D02*
X15285714Y-1407200D01*
X15285714Y-1407200D02*
X15380952Y-1454819D01*
X15380952Y-1454819D02*
X15571428Y-1454819D01*
X15571428Y-1454819D02*
X15666666Y-1407200D01*
X15666666Y-1407200D02*
X15761904Y-1311961D01*
X15761904Y-1311961D02*
X15809523Y-1121485D01*
X15809523Y-1121485D02*
X15809523Y-788152D01*
X15809523Y-788152D02*
X15761904Y-597676D01*
X15761904Y-597676D02*
X15666666Y-502438D01*
X15666666Y-502438D02*
X15571428Y-454819D01*
X14714285Y-1454819D02*
X14714285Y-454819D01*
X14714285Y-454819D02*
X14142857Y-1454819D01*
X14142857Y-1454819D02*
X14142857Y-454819D01*
X13190476Y-1454819D02*
X13666666Y-1454819D01*
X13666666Y-1454819D02*
X13666666Y-454819D01*
X12666666Y-978628D02*
X12666666Y-1454819D01*
X12999999Y-454819D02*
X12666666Y-978628D01*
X12666666Y-978628D02*
X12333333Y-454819D01*
X20547619Y-6304819D02*
X21119047Y-6304819D01*
X20833333Y-6304819D02*
X20833333Y-5304819D01*
X20833333Y-5304819D02*
X20928571Y-5447676D01*
X20928571Y-5447676D02*
X21023809Y-5542914D01*
X21023809Y-5542914D02*
X21119047Y-5590533D01*
X20166666Y-5400057D02*
X20119047Y-5352438D01*
X20119047Y-5352438D02*
X20023809Y-5304819D01*
X20023809Y-5304819D02*
X19785714Y-5304819D01*
X19785714Y-5304819D02*
X19690476Y-5352438D01*
X19690476Y-5352438D02*
X19642857Y-5400057D01*
X19642857Y-5400057D02*
X19595238Y-5495295D01*
X19595238Y-5495295D02*
X19595238Y-5590533D01*
X19595238Y-5590533D02*
X19642857Y-5733390D01*
X19642857Y-5733390D02*
X20214285Y-6304819D01*
X20214285Y-6304819D02*
X19595238Y-6304819D01*
X18976190Y-5304819D02*
X18880952Y-5304819D01*
X18880952Y-5304819D02*
X18785714Y-5352438D01*
X18785714Y-5352438D02*
X18738095Y-5400057D01*
X18738095Y-5400057D02*
X18690476Y-5495295D01*
X18690476Y-5495295D02*
X18642857Y-5685771D01*
X18642857Y-5685771D02*
X18642857Y-5923866D01*
X18642857Y-5923866D02*
X18690476Y-6114342D01*
X18690476Y-6114342D02*
X18738095Y-6209580D01*
X18738095Y-6209580D02*
X18785714Y-6257200D01*
X18785714Y-6257200D02*
X18880952Y-6304819D01*
X18880952Y-6304819D02*
X18976190Y-6304819D01*
X18976190Y-6304819D02*
X19071428Y-6257200D01*
X19071428Y-6257200D02*
X19119047Y-6209580D01*
X19119047Y-6209580D02*
X19166666Y-6114342D01*
X19166666Y-6114342D02*
X19214285Y-5923866D01*
X19214285Y-5923866D02*
X19214285Y-5685771D01*
X19214285Y-5685771D02*
X19166666Y-5495295D01*
X19166666Y-5495295D02*
X19119047Y-5400057D01*
X19119047Y-5400057D02*
X19071428Y-5352438D01*
X19071428Y-5352438D02*
X18976190Y-5304819D01*
X17642857Y-6304819D02*
X17976190Y-5828628D01*
X18214285Y-6304819D02*
X18214285Y-5304819D01*
X18214285Y-5304819D02*
X17833333Y-5304819D01*
X17833333Y-5304819D02*
X17738095Y-5352438D01*
X17738095Y-5352438D02*
X17690476Y-5400057D01*
X17690476Y-5400057D02*
X17642857Y-5495295D01*
X17642857Y-5495295D02*
X17642857Y-5638152D01*
X17642857Y-5638152D02*
X17690476Y-5733390D01*
X17690476Y-5733390D02*
X17738095Y-5781009D01*
X17738095Y-5781009D02*
X17833333Y-5828628D01*
X17833333Y-5828628D02*
X18214285Y-5828628D01*
X16261904Y-5304819D02*
X16071428Y-5304819D01*
X16071428Y-5304819D02*
X15976190Y-5352438D01*
X15976190Y-5352438D02*
X15880952Y-5447676D01*
X15880952Y-5447676D02*
X15833333Y-5638152D01*
X15833333Y-5638152D02*
X15833333Y-5971485D01*
X15833333Y-5971485D02*
X15880952Y-6161961D01*
X15880952Y-6161961D02*
X15976190Y-6257200D01*
X15976190Y-6257200D02*
X16071428Y-6304819D01*
X16071428Y-6304819D02*
X16261904Y-6304819D01*
X16261904Y-6304819D02*
X16357142Y-6257200D01*
X16357142Y-6257200D02*
X16452380Y-6161961D01*
X16452380Y-6161961D02*
X16499999Y-5971485D01*
X16499999Y-5971485D02*
X16499999Y-5638152D01*
X16499999Y-5638152D02*
X16452380Y-5447676D01*
X16452380Y-5447676D02*
X16357142Y-5352438D01*
X16357142Y-5352438D02*
X16261904Y-5304819D01*
X15404761Y-6304819D02*
X15404761Y-5304819D01*
X15404761Y-5304819D02*
X15023809Y-5304819D01*
X15023809Y-5304819D02*
X14928571Y-5352438D01*
X14928571Y-5352438D02*
X14880952Y-5400057D01*
X14880952Y-5400057D02*
X14833333Y-5495295D01*
X14833333Y-5495295D02*
X14833333Y-5638152D01*
X14833333Y-5638152D02*
X14880952Y-5733390D01*
X14880952Y-5733390D02*
X14928571Y-5781009D01*
X14928571Y-5781009D02*
X15023809Y-5828628D01*
X15023809Y-5828628D02*
X15404761Y-5828628D01*
X14404761Y-5781009D02*
X14071428Y-5781009D01*
X13928571Y-6304819D02*
X14404761Y-6304819D01*
X14404761Y-6304819D02*
X14404761Y-5304819D01*
X14404761Y-5304819D02*
X13928571Y-5304819D01*
X13499999Y-6304819D02*
X13499999Y-5304819D01*
X13499999Y-5304819D02*
X12928571Y-6304819D01*
X12928571Y-6304819D02*
X12928571Y-5304819D01*
X19285713Y-17154819D02*
X18666666Y-17154819D01*
X18666666Y-17154819D02*
X18999999Y-17535771D01*
X18999999Y-17535771D02*
X18857142Y-17535771D01*
X18857142Y-17535771D02*
X18761904Y-17583390D01*
X18761904Y-17583390D02*
X18714285Y-17631009D01*
X18714285Y-17631009D02*
X18666666Y-17726247D01*
X18666666Y-17726247D02*
X18666666Y-17964342D01*
X18666666Y-17964342D02*
X18714285Y-18059580D01*
X18714285Y-18059580D02*
X18761904Y-18107200D01*
X18761904Y-18107200D02*
X18857142Y-18154819D01*
X18857142Y-18154819D02*
X19142856Y-18154819D01*
X19142856Y-18154819D02*
X19238094Y-18107200D01*
X19238094Y-18107200D02*
X19285713Y-18059580D01*
X18047618Y-17154819D02*
X17952380Y-17154819D01*
X17952380Y-17154819D02*
X17857142Y-17202438D01*
X17857142Y-17202438D02*
X17809523Y-17250057D01*
X17809523Y-17250057D02*
X17761904Y-17345295D01*
X17761904Y-17345295D02*
X17714285Y-17535771D01*
X17714285Y-17535771D02*
X17714285Y-17773866D01*
X17714285Y-17773866D02*
X17761904Y-17964342D01*
X17761904Y-17964342D02*
X17809523Y-18059580D01*
X17809523Y-18059580D02*
X17857142Y-18107200D01*
X17857142Y-18107200D02*
X17952380Y-18154819D01*
X17952380Y-18154819D02*
X18047618Y-18154819D01*
X18047618Y-18154819D02*
X18142856Y-18107200D01*
X18142856Y-18107200D02*
X18190475Y-18059580D01*
X18190475Y-18059580D02*
X18238094Y-17964342D01*
X18238094Y-17964342D02*
X18285713Y-17773866D01*
X18285713Y-17773866D02*
X18285713Y-17535771D01*
X18285713Y-17535771D02*
X18238094Y-17345295D01*
X18238094Y-17345295D02*
X18190475Y-17250057D01*
X18190475Y-17250057D02*
X18142856Y-17202438D01*
X18142856Y-17202438D02*
X18047618Y-17154819D01*
X16809523Y-17154819D02*
X17285713Y-17154819D01*
X17285713Y-17154819D02*
X17333332Y-17631009D01*
X17333332Y-17631009D02*
X17285713Y-17583390D01*
X17285713Y-17583390D02*
X17190475Y-17535771D01*
X17190475Y-17535771D02*
X16952380Y-17535771D01*
X16952380Y-17535771D02*
X16857142Y-17583390D01*
X16857142Y-17583390D02*
X16809523Y-17631009D01*
X16809523Y-17631009D02*
X16761904Y-17726247D01*
X16761904Y-17726247D02*
X16761904Y-17964342D01*
X16761904Y-17964342D02*
X16809523Y-18059580D01*
X16809523Y-18059580D02*
X16857142Y-18107200D01*
X16857142Y-18107200D02*
X16952380Y-18154819D01*
X16952380Y-18154819D02*
X17190475Y-18154819D01*
X17190475Y-18154819D02*
X17285713Y-18107200D01*
X17285713Y-18107200D02*
X17333332Y-18059580D01*
X23034285Y-39454819D02*
X23510475Y-39454819D01*
X23510475Y-39454819D02*
X23558094Y-39931009D01*
X23558094Y-39931009D02*
X23510475Y-39883390D01*
X23510475Y-39883390D02*
X23415237Y-39835771D01*
X23415237Y-39835771D02*
X23177142Y-39835771D01*
X23177142Y-39835771D02*
X23081904Y-39883390D01*
X23081904Y-39883390D02*
X23034285Y-39931009D01*
X23034285Y-39931009D02*
X22986666Y-40026247D01*
X22986666Y-40026247D02*
X22986666Y-40264342D01*
X22986666Y-40264342D02*
X23034285Y-40359580D01*
X23034285Y-40359580D02*
X23081904Y-40407200D01*
X23081904Y-40407200D02*
X23177142Y-40454819D01*
X23177142Y-40454819D02*
X23415237Y-40454819D01*
X23415237Y-40454819D02*
X23510475Y-40407200D01*
X23510475Y-40407200D02*
X23558094Y-40359580D01*
X22367618Y-39454819D02*
X22272380Y-39454819D01*
X22272380Y-39454819D02*
X22177142Y-39502438D01*
X22177142Y-39502438D02*
X22129523Y-39550057D01*
X22129523Y-39550057D02*
X22081904Y-39645295D01*
X22081904Y-39645295D02*
X22034285Y-39835771D01*
X22034285Y-39835771D02*
X22034285Y-40073866D01*
X22034285Y-40073866D02*
X22081904Y-40264342D01*
X22081904Y-40264342D02*
X22129523Y-40359580D01*
X22129523Y-40359580D02*
X22177142Y-40407200D01*
X22177142Y-40407200D02*
X22272380Y-40454819D01*
X22272380Y-40454819D02*
X22367618Y-40454819D01*
X22367618Y-40454819D02*
X22462856Y-40407200D01*
X22462856Y-40407200D02*
X22510475Y-40359580D01*
X22510475Y-40359580D02*
X22558094Y-40264342D01*
X22558094Y-40264342D02*
X22605713Y-40073866D01*
X22605713Y-40073866D02*
X22605713Y-39835771D01*
X22605713Y-39835771D02*
X22558094Y-39645295D01*
X22558094Y-39645295D02*
X22510475Y-39550057D01*
X22510475Y-39550057D02*
X22462856Y-39502438D01*
X22462856Y-39502438D02*
X22367618Y-39454819D01*
X21462856Y-39883390D02*
X21558094Y-39835771D01*
X21558094Y-39835771D02*
X21605713Y-39788152D01*
X21605713Y-39788152D02*
X21653332Y-39692914D01*
X21653332Y-39692914D02*
X21653332Y-39645295D01*
X21653332Y-39645295D02*
X21605713Y-39550057D01*
X21605713Y-39550057D02*
X21558094Y-39502438D01*
X21558094Y-39502438D02*
X21462856Y-39454819D01*
X21462856Y-39454819D02*
X21272380Y-39454819D01*
X21272380Y-39454819D02*
X21177142Y-39502438D01*
X21177142Y-39502438D02*
X21129523Y-39550057D01*
X21129523Y-39550057D02*
X21081904Y-39645295D01*
X21081904Y-39645295D02*
X21081904Y-39692914D01*
X21081904Y-39692914D02*
X21129523Y-39788152D01*
X21129523Y-39788152D02*
X21177142Y-39835771D01*
X21177142Y-39835771D02*
X21272380Y-39883390D01*
X21272380Y-39883390D02*
X21462856Y-39883390D01*
X21462856Y-39883390D02*
X21558094Y-39931009D01*
X21558094Y-39931009D02*
X21605713Y-39978628D01*
X21605713Y-39978628D02*
X21653332Y-40073866D01*
X21653332Y-40073866D02*
X21653332Y-40264342D01*
X21653332Y-40264342D02*
X21605713Y-40359580D01*
X21605713Y-40359580D02*
X21558094Y-40407200D01*
X21558094Y-40407200D02*
X21462856Y-40454819D01*
X21462856Y-40454819D02*
X21272380Y-40454819D01*
X21272380Y-40454819D02*
X21177142Y-40407200D01*
X21177142Y-40407200D02*
X21129523Y-40359580D01*
X21129523Y-40359580D02*
X21081904Y-40264342D01*
X21081904Y-40264342D02*
X21081904Y-40073866D01*
X21081904Y-40073866D02*
X21129523Y-39978628D01*
X21129523Y-39978628D02*
X21177142Y-39931009D01*
X21177142Y-39931009D02*
X21272380Y-39883390D01*
X28085713Y-3654819D02*
X27466666Y-3654819D01*
X27466666Y-3654819D02*
X27799999Y-4035771D01*
X27799999Y-4035771D02*
X27657142Y-4035771D01*
X27657142Y-4035771D02*
X27561904Y-4083390D01*
X27561904Y-4083390D02*
X27514285Y-4131009D01*
X27514285Y-4131009D02*
X27466666Y-4226247D01*
X27466666Y-4226247D02*
X27466666Y-4464342D01*
X27466666Y-4464342D02*
X27514285Y-4559580D01*
X27514285Y-4559580D02*
X27561904Y-4607200D01*
X27561904Y-4607200D02*
X27657142Y-4654819D01*
X27657142Y-4654819D02*
X27942856Y-4654819D01*
X27942856Y-4654819D02*
X28038094Y-4607200D01*
X28038094Y-4607200D02*
X28085713Y-4559580D01*
X26847618Y-3654819D02*
X26752380Y-3654819D01*
X26752380Y-3654819D02*
X26657142Y-3702438D01*
X26657142Y-3702438D02*
X26609523Y-3750057D01*
X26609523Y-3750057D02*
X26561904Y-3845295D01*
X26561904Y-3845295D02*
X26514285Y-4035771D01*
X26514285Y-4035771D02*
X26514285Y-4273866D01*
X26514285Y-4273866D02*
X26561904Y-4464342D01*
X26561904Y-4464342D02*
X26609523Y-4559580D01*
X26609523Y-4559580D02*
X26657142Y-4607200D01*
X26657142Y-4607200D02*
X26752380Y-4654819D01*
X26752380Y-4654819D02*
X26847618Y-4654819D01*
X26847618Y-4654819D02*
X26942856Y-4607200D01*
X26942856Y-4607200D02*
X26990475Y-4559580D01*
X26990475Y-4559580D02*
X27038094Y-4464342D01*
X27038094Y-4464342D02*
X27085713Y-4273866D01*
X27085713Y-4273866D02*
X27085713Y-4035771D01*
X27085713Y-4035771D02*
X27038094Y-3845295D01*
X27038094Y-3845295D02*
X26990475Y-3750057D01*
X26990475Y-3750057D02*
X26942856Y-3702438D01*
X26942856Y-3702438D02*
X26847618Y-3654819D01*
X26180951Y-3654819D02*
X25561904Y-3654819D01*
X25561904Y-3654819D02*
X25895237Y-4035771D01*
X25895237Y-4035771D02*
X25752380Y-4035771D01*
X25752380Y-4035771D02*
X25657142Y-4083390D01*
X25657142Y-4083390D02*
X25609523Y-4131009D01*
X25609523Y-4131009D02*
X25561904Y-4226247D01*
X25561904Y-4226247D02*
X25561904Y-4464342D01*
X25561904Y-4464342D02*
X25609523Y-4559580D01*
X25609523Y-4559580D02*
X25657142Y-4607200D01*
X25657142Y-4607200D02*
X25752380Y-4654819D01*
X25752380Y-4654819D02*
X26038094Y-4654819D01*
X26038094Y-4654819D02*
X26133332Y-4607200D01*
X26133332Y-4607200D02*
X26180951Y-4559580D01*
X30666666Y-2654819D02*
X31238094Y-2654819D01*
X30952380Y-2654819D02*
X30952380Y-1654819D01*
X30952380Y-1654819D02*
X31047618Y-1797676D01*
X31047618Y-1797676D02*
X31142856Y-1892914D01*
X31142856Y-1892914D02*
X31238094Y-1940533D01*
X29761904Y-1654819D02*
X30238094Y-1654819D01*
X30238094Y-1654819D02*
X30285713Y-2131009D01*
X30285713Y-2131009D02*
X30238094Y-2083390D01*
X30238094Y-2083390D02*
X30142856Y-2035771D01*
X30142856Y-2035771D02*
X29904761Y-2035771D01*
X29904761Y-2035771D02*
X29809523Y-2083390D01*
X29809523Y-2083390D02*
X29761904Y-2131009D01*
X29761904Y-2131009D02*
X29714285Y-2226247D01*
X29714285Y-2226247D02*
X29714285Y-2464342D01*
X29714285Y-2464342D02*
X29761904Y-2559580D01*
X29761904Y-2559580D02*
X29809523Y-2607200D01*
X29809523Y-2607200D02*
X29904761Y-2654819D01*
X29904761Y-2654819D02*
X30142856Y-2654819D01*
X30142856Y-2654819D02*
X30238094Y-2607200D01*
X30238094Y-2607200D02*
X30285713Y-2559580D01*
X29333332Y-1750057D02*
X29285713Y-1702438D01*
X29285713Y-1702438D02*
X29190475Y-1654819D01*
X29190475Y-1654819D02*
X28952380Y-1654819D01*
X28952380Y-1654819D02*
X28857142Y-1702438D01*
X28857142Y-1702438D02*
X28809523Y-1750057D01*
X28809523Y-1750057D02*
X28761904Y-1845295D01*
X28761904Y-1845295D02*
X28761904Y-1940533D01*
X28761904Y-1940533D02*
X28809523Y-2083390D01*
X28809523Y-2083390D02*
X29380951Y-2654819D01*
X29380951Y-2654819D02*
X28761904Y-2654819D01*
X32700527Y-8707771D02*
X32081480Y-8707771D01*
X32081480Y-8707771D02*
X32414813Y-9088723D01*
X32414813Y-9088723D02*
X32271956Y-9088723D01*
X32271956Y-9088723D02*
X32176718Y-9136342D01*
X32176718Y-9136342D02*
X32129099Y-9183961D01*
X32129099Y-9183961D02*
X32081480Y-9279199D01*
X32081480Y-9279199D02*
X32081480Y-9517294D01*
X32081480Y-9517294D02*
X32129099Y-9612532D01*
X32129099Y-9612532D02*
X32176718Y-9660152D01*
X32176718Y-9660152D02*
X32271956Y-9707771D01*
X32271956Y-9707771D02*
X32557670Y-9707771D01*
X32557670Y-9707771D02*
X32652908Y-9660152D01*
X32652908Y-9660152D02*
X32700527Y-9612532D01*
X31462432Y-8707771D02*
X31367194Y-8707771D01*
X31367194Y-8707771D02*
X31271956Y-8755390D01*
X31271956Y-8755390D02*
X31224337Y-8803009D01*
X31224337Y-8803009D02*
X31176718Y-8898247D01*
X31176718Y-8898247D02*
X31129099Y-9088723D01*
X31129099Y-9088723D02*
X31129099Y-9326818D01*
X31129099Y-9326818D02*
X31176718Y-9517294D01*
X31176718Y-9517294D02*
X31224337Y-9612532D01*
X31224337Y-9612532D02*
X31271956Y-9660152D01*
X31271956Y-9660152D02*
X31367194Y-9707771D01*
X31367194Y-9707771D02*
X31462432Y-9707771D01*
X31462432Y-9707771D02*
X31557670Y-9660152D01*
X31557670Y-9660152D02*
X31605289Y-9612532D01*
X31605289Y-9612532D02*
X31652908Y-9517294D01*
X31652908Y-9517294D02*
X31700527Y-9326818D01*
X31700527Y-9326818D02*
X31700527Y-9088723D01*
X31700527Y-9088723D02*
X31652908Y-8898247D01*
X31652908Y-8898247D02*
X31605289Y-8803009D01*
X31605289Y-8803009D02*
X31557670Y-8755390D01*
X31557670Y-8755390D02*
X31462432Y-8707771D01*
X30271956Y-9041104D02*
X30271956Y-9707771D01*
X30510051Y-8660152D02*
X30748146Y-9374437D01*
X30748146Y-9374437D02*
X30129099Y-9374437D01*
X33066666Y-7154819D02*
X33638094Y-7154819D01*
X33352380Y-7154819D02*
X33352380Y-6154819D01*
X33352380Y-6154819D02*
X33447618Y-6297676D01*
X33447618Y-6297676D02*
X33542856Y-6392914D01*
X33542856Y-6392914D02*
X33638094Y-6440533D01*
X32161904Y-6154819D02*
X32638094Y-6154819D01*
X32638094Y-6154819D02*
X32685713Y-6631009D01*
X32685713Y-6631009D02*
X32638094Y-6583390D01*
X32638094Y-6583390D02*
X32542856Y-6535771D01*
X32542856Y-6535771D02*
X32304761Y-6535771D01*
X32304761Y-6535771D02*
X32209523Y-6583390D01*
X32209523Y-6583390D02*
X32161904Y-6631009D01*
X32161904Y-6631009D02*
X32114285Y-6726247D01*
X32114285Y-6726247D02*
X32114285Y-6964342D01*
X32114285Y-6964342D02*
X32161904Y-7059580D01*
X32161904Y-7059580D02*
X32209523Y-7107200D01*
X32209523Y-7107200D02*
X32304761Y-7154819D01*
X32304761Y-7154819D02*
X32542856Y-7154819D01*
X32542856Y-7154819D02*
X32638094Y-7107200D01*
X32638094Y-7107200D02*
X32685713Y-7059580D01*
X31161904Y-7154819D02*
X31733332Y-7154819D01*
X31447618Y-7154819D02*
X31447618Y-6154819D01*
X31447618Y-6154819D02*
X31542856Y-6297676D01*
X31542856Y-6297676D02*
X31638094Y-6392914D01*
X31638094Y-6392914D02*
X31733332Y-6440533D01*
X34666666Y-2654819D02*
X35238094Y-2654819D01*
X34952380Y-2654819D02*
X34952380Y-1654819D01*
X34952380Y-1654819D02*
X35047618Y-1797676D01*
X35047618Y-1797676D02*
X35142856Y-1892914D01*
X35142856Y-1892914D02*
X35238094Y-1940533D01*
X33761904Y-1654819D02*
X34238094Y-1654819D01*
X34238094Y-1654819D02*
X34285713Y-2131009D01*
X34285713Y-2131009D02*
X34238094Y-2083390D01*
X34238094Y-2083390D02*
X34142856Y-2035771D01*
X34142856Y-2035771D02*
X33904761Y-2035771D01*
X33904761Y-2035771D02*
X33809523Y-2083390D01*
X33809523Y-2083390D02*
X33761904Y-2131009D01*
X33761904Y-2131009D02*
X33714285Y-2226247D01*
X33714285Y-2226247D02*
X33714285Y-2464342D01*
X33714285Y-2464342D02*
X33761904Y-2559580D01*
X33761904Y-2559580D02*
X33809523Y-2607200D01*
X33809523Y-2607200D02*
X33904761Y-2654819D01*
X33904761Y-2654819D02*
X34142856Y-2654819D01*
X34142856Y-2654819D02*
X34238094Y-2607200D01*
X34238094Y-2607200D02*
X34285713Y-2559580D01*
X33380951Y-1654819D02*
X32761904Y-1654819D01*
X32761904Y-1654819D02*
X33095237Y-2035771D01*
X33095237Y-2035771D02*
X32952380Y-2035771D01*
X32952380Y-2035771D02*
X32857142Y-2083390D01*
X32857142Y-2083390D02*
X32809523Y-2131009D01*
X32809523Y-2131009D02*
X32761904Y-2226247D01*
X32761904Y-2226247D02*
X32761904Y-2464342D01*
X32761904Y-2464342D02*
X32809523Y-2559580D01*
X32809523Y-2559580D02*
X32857142Y-2607200D01*
X32857142Y-2607200D02*
X32952380Y-2654819D01*
X32952380Y-2654819D02*
X33238094Y-2654819D01*
X33238094Y-2654819D02*
X33333332Y-2607200D01*
X33333332Y-2607200D02*
X33380951Y-2559580D01*
X43236666Y-39954819D02*
X43808094Y-39954819D01*
X43522380Y-39954819D02*
X43522380Y-38954819D01*
X43522380Y-38954819D02*
X43617618Y-39097676D01*
X43617618Y-39097676D02*
X43712856Y-39192914D01*
X43712856Y-39192914D02*
X43808094Y-39240533D01*
X42617618Y-38954819D02*
X42522380Y-38954819D01*
X42522380Y-38954819D02*
X42427142Y-39002438D01*
X42427142Y-39002438D02*
X42379523Y-39050057D01*
X42379523Y-39050057D02*
X42331904Y-39145295D01*
X42331904Y-39145295D02*
X42284285Y-39335771D01*
X42284285Y-39335771D02*
X42284285Y-39573866D01*
X42284285Y-39573866D02*
X42331904Y-39764342D01*
X42331904Y-39764342D02*
X42379523Y-39859580D01*
X42379523Y-39859580D02*
X42427142Y-39907200D01*
X42427142Y-39907200D02*
X42522380Y-39954819D01*
X42522380Y-39954819D02*
X42617618Y-39954819D01*
X42617618Y-39954819D02*
X42712856Y-39907200D01*
X42712856Y-39907200D02*
X42760475Y-39859580D01*
X42760475Y-39859580D02*
X42808094Y-39764342D01*
X42808094Y-39764342D02*
X42855713Y-39573866D01*
X42855713Y-39573866D02*
X42855713Y-39335771D01*
X42855713Y-39335771D02*
X42808094Y-39145295D01*
X42808094Y-39145295D02*
X42760475Y-39050057D01*
X42760475Y-39050057D02*
X42712856Y-39002438D01*
X42712856Y-39002438D02*
X42617618Y-38954819D01*
X41427142Y-39288152D02*
X41427142Y-39954819D01*
X41665237Y-38907200D02*
X41903332Y-39621485D01*
X41903332Y-39621485D02*
X41284285Y-39621485D01*
X62571429Y-30502438D02*
X62666667Y-30454819D01*
X62666667Y-30454819D02*
X62809524Y-30454819D01*
X62809524Y-30454819D02*
X62952381Y-30502438D01*
X62952381Y-30502438D02*
X63047619Y-30597676D01*
X63047619Y-30597676D02*
X63095238Y-30692914D01*
X63095238Y-30692914D02*
X63142857Y-30883390D01*
X63142857Y-30883390D02*
X63142857Y-31026247D01*
X63142857Y-31026247D02*
X63095238Y-31216723D01*
X63095238Y-31216723D02*
X63047619Y-31311961D01*
X63047619Y-31311961D02*
X62952381Y-31407200D01*
X62952381Y-31407200D02*
X62809524Y-31454819D01*
X62809524Y-31454819D02*
X62714286Y-31454819D01*
X62714286Y-31454819D02*
X62571429Y-31407200D01*
X62571429Y-31407200D02*
X62523810Y-31359580D01*
X62523810Y-31359580D02*
X62523810Y-31026247D01*
X62523810Y-31026247D02*
X62714286Y-31026247D01*
X61523810Y-31454819D02*
X61857143Y-30978628D01*
X62095238Y-31454819D02*
X62095238Y-30454819D01*
X62095238Y-30454819D02*
X61714286Y-30454819D01*
X61714286Y-30454819D02*
X61619048Y-30502438D01*
X61619048Y-30502438D02*
X61571429Y-30550057D01*
X61571429Y-30550057D02*
X61523810Y-30645295D01*
X61523810Y-30645295D02*
X61523810Y-30788152D01*
X61523810Y-30788152D02*
X61571429Y-30883390D01*
X61571429Y-30883390D02*
X61619048Y-30931009D01*
X61619048Y-30931009D02*
X61714286Y-30978628D01*
X61714286Y-30978628D02*
X62095238Y-30978628D01*
X60952381Y-30883390D02*
X61047619Y-30835771D01*
X61047619Y-30835771D02*
X61095238Y-30788152D01*
X61095238Y-30788152D02*
X61142857Y-30692914D01*
X61142857Y-30692914D02*
X61142857Y-30645295D01*
X61142857Y-30645295D02*
X61095238Y-30550057D01*
X61095238Y-30550057D02*
X61047619Y-30502438D01*
X61047619Y-30502438D02*
X60952381Y-30454819D01*
X60952381Y-30454819D02*
X60761905Y-30454819D01*
X60761905Y-30454819D02*
X60666667Y-30502438D01*
X60666667Y-30502438D02*
X60619048Y-30550057D01*
X60619048Y-30550057D02*
X60571429Y-30645295D01*
X60571429Y-30645295D02*
X60571429Y-30692914D01*
X60571429Y-30692914D02*
X60619048Y-30788152D01*
X60619048Y-30788152D02*
X60666667Y-30835771D01*
X60666667Y-30835771D02*
X60761905Y-30883390D01*
X60761905Y-30883390D02*
X60952381Y-30883390D01*
X60952381Y-30883390D02*
X61047619Y-30931009D01*
X61047619Y-30931009D02*
X61095238Y-30978628D01*
X61095238Y-30978628D02*
X61142857Y-31073866D01*
X61142857Y-31073866D02*
X61142857Y-31264342D01*
X61142857Y-31264342D02*
X61095238Y-31359580D01*
X61095238Y-31359580D02*
X61047619Y-31407200D01*
X61047619Y-31407200D02*
X60952381Y-31454819D01*
X60952381Y-31454819D02*
X60761905Y-31454819D01*
X60761905Y-31454819D02*
X60666667Y-31407200D01*
X60666667Y-31407200D02*
X60619048Y-31359580D01*
X60619048Y-31359580D02*
X60571429Y-31264342D01*
X60571429Y-31264342D02*
X60571429Y-31073866D01*
X60571429Y-31073866D02*
X60619048Y-30978628D01*
X60619048Y-30978628D02*
X60666667Y-30931009D01*
X60666667Y-30931009D02*
X60761905Y-30883390D01*
X59714286Y-30454819D02*
X59904762Y-30454819D01*
X59904762Y-30454819D02*
X60000000Y-30502438D01*
X60000000Y-30502438D02*
X60047619Y-30550057D01*
X60047619Y-30550057D02*
X60142857Y-30692914D01*
X60142857Y-30692914D02*
X60190476Y-30883390D01*
X60190476Y-30883390D02*
X60190476Y-31264342D01*
X60190476Y-31264342D02*
X60142857Y-31359580D01*
X60142857Y-31359580D02*
X60095238Y-31407200D01*
X60095238Y-31407200D02*
X60000000Y-31454819D01*
X60000000Y-31454819D02*
X59809524Y-31454819D01*
X59809524Y-31454819D02*
X59714286Y-31407200D01*
X59714286Y-31407200D02*
X59666667Y-31359580D01*
X59666667Y-31359580D02*
X59619048Y-31264342D01*
X59619048Y-31264342D02*
X59619048Y-31026247D01*
X59619048Y-31026247D02*
X59666667Y-30931009D01*
X59666667Y-30931009D02*
X59714286Y-30883390D01*
X59714286Y-30883390D02*
X59809524Y-30835771D01*
X59809524Y-30835771D02*
X60000000Y-30835771D01*
X60000000Y-30835771D02*
X60095238Y-30883390D01*
X60095238Y-30883390D02*
X60142857Y-30931009D01*
X60142857Y-30931009D02*
X60190476Y-31026247D01*
X57857143Y-31359580D02*
X57904762Y-31407200D01*
X57904762Y-31407200D02*
X58047619Y-31454819D01*
X58047619Y-31454819D02*
X58142857Y-31454819D01*
X58142857Y-31454819D02*
X58285714Y-31407200D01*
X58285714Y-31407200D02*
X58380952Y-31311961D01*
X58380952Y-31311961D02*
X58428571Y-31216723D01*
X58428571Y-31216723D02*
X58476190Y-31026247D01*
X58476190Y-31026247D02*
X58476190Y-30883390D01*
X58476190Y-30883390D02*
X58428571Y-30692914D01*
X58428571Y-30692914D02*
X58380952Y-30597676D01*
X58380952Y-30597676D02*
X58285714Y-30502438D01*
X58285714Y-30502438D02*
X58142857Y-30454819D01*
X58142857Y-30454819D02*
X58047619Y-30454819D01*
X58047619Y-30454819D02*
X57904762Y-30502438D01*
X57904762Y-30502438D02*
X57857143Y-30550057D01*
X56857143Y-31359580D02*
X56904762Y-31407200D01*
X56904762Y-31407200D02*
X57047619Y-31454819D01*
X57047619Y-31454819D02*
X57142857Y-31454819D01*
X57142857Y-31454819D02*
X57285714Y-31407200D01*
X57285714Y-31407200D02*
X57380952Y-31311961D01*
X57380952Y-31311961D02*
X57428571Y-31216723D01*
X57428571Y-31216723D02*
X57476190Y-31026247D01*
X57476190Y-31026247D02*
X57476190Y-30883390D01*
X57476190Y-30883390D02*
X57428571Y-30692914D01*
X57428571Y-30692914D02*
X57380952Y-30597676D01*
X57380952Y-30597676D02*
X57285714Y-30502438D01*
X57285714Y-30502438D02*
X57142857Y-30454819D01*
X57142857Y-30454819D02*
X57047619Y-30454819D01*
X57047619Y-30454819D02*
X56904762Y-30502438D01*
X56904762Y-30502438D02*
X56857143Y-30550057D01*
X56476190Y-31169104D02*
X56000000Y-31169104D01*
X56571428Y-31454819D02*
X56238095Y-30454819D01*
X56238095Y-30454819D02*
X55904762Y-31454819D01*
X54238095Y-31454819D02*
X54571428Y-30978628D01*
X54809523Y-31454819D02*
X54809523Y-30454819D01*
X54809523Y-30454819D02*
X54428571Y-30454819D01*
X54428571Y-30454819D02*
X54333333Y-30502438D01*
X54333333Y-30502438D02*
X54285714Y-30550057D01*
X54285714Y-30550057D02*
X54238095Y-30645295D01*
X54238095Y-30645295D02*
X54238095Y-30788152D01*
X54238095Y-30788152D02*
X54285714Y-30883390D01*
X54285714Y-30883390D02*
X54333333Y-30931009D01*
X54333333Y-30931009D02*
X54428571Y-30978628D01*
X54428571Y-30978628D02*
X54809523Y-30978628D01*
X53428571Y-31407200D02*
X53523809Y-31454819D01*
X53523809Y-31454819D02*
X53714285Y-31454819D01*
X53714285Y-31454819D02*
X53809523Y-31407200D01*
X53809523Y-31407200D02*
X53857142Y-31311961D01*
X53857142Y-31311961D02*
X53857142Y-30931009D01*
X53857142Y-30931009D02*
X53809523Y-30835771D01*
X53809523Y-30835771D02*
X53714285Y-30788152D01*
X53714285Y-30788152D02*
X53523809Y-30788152D01*
X53523809Y-30788152D02*
X53428571Y-30835771D01*
X53428571Y-30835771D02*
X53380952Y-30931009D01*
X53380952Y-30931009D02*
X53380952Y-31026247D01*
X53380952Y-31026247D02*
X53857142Y-31121485D01*
X53047618Y-30788152D02*
X52809523Y-31454819D01*
X52809523Y-31454819D02*
X52571428Y-30788152D01*
X51095237Y-30931009D02*
X50952380Y-30978628D01*
X50952380Y-30978628D02*
X50904761Y-31026247D01*
X50904761Y-31026247D02*
X50857142Y-31121485D01*
X50857142Y-31121485D02*
X50857142Y-31264342D01*
X50857142Y-31264342D02*
X50904761Y-31359580D01*
X50904761Y-31359580D02*
X50952380Y-31407200D01*
X50952380Y-31407200D02*
X51047618Y-31454819D01*
X51047618Y-31454819D02*
X51428570Y-31454819D01*
X51428570Y-31454819D02*
X51428570Y-30454819D01*
X51428570Y-30454819D02*
X51095237Y-30454819D01*
X51095237Y-30454819D02*
X50999999Y-30502438D01*
X50999999Y-30502438D02*
X50952380Y-30550057D01*
X50952380Y-30550057D02*
X50904761Y-30645295D01*
X50904761Y-30645295D02*
X50904761Y-30740533D01*
X50904761Y-30740533D02*
X50952380Y-30835771D01*
X50952380Y-30835771D02*
X50999999Y-30883390D01*
X50999999Y-30883390D02*
X51095237Y-30931009D01*
X51095237Y-30931009D02*
X51428570Y-30931009D01*
X61595237Y-33454819D02*
X61595237Y-32454819D01*
X61595237Y-32454819D02*
X61214285Y-32454819D01*
X61214285Y-32454819D02*
X61119047Y-32502438D01*
X61119047Y-32502438D02*
X61071428Y-32550057D01*
X61071428Y-32550057D02*
X61023809Y-32645295D01*
X61023809Y-32645295D02*
X61023809Y-32788152D01*
X61023809Y-32788152D02*
X61071428Y-32883390D01*
X61071428Y-32883390D02*
X61119047Y-32931009D01*
X61119047Y-32931009D02*
X61214285Y-32978628D01*
X61214285Y-32978628D02*
X61595237Y-32978628D01*
X60642856Y-33169104D02*
X60166666Y-33169104D01*
X60738094Y-33454819D02*
X60404761Y-32454819D01*
X60404761Y-32454819D02*
X60071428Y-33454819D01*
X59785713Y-33407200D02*
X59642856Y-33454819D01*
X59642856Y-33454819D02*
X59404761Y-33454819D01*
X59404761Y-33454819D02*
X59309523Y-33407200D01*
X59309523Y-33407200D02*
X59261904Y-33359580D01*
X59261904Y-33359580D02*
X59214285Y-33264342D01*
X59214285Y-33264342D02*
X59214285Y-33169104D01*
X59214285Y-33169104D02*
X59261904Y-33073866D01*
X59261904Y-33073866D02*
X59309523Y-33026247D01*
X59309523Y-33026247D02*
X59404761Y-32978628D01*
X59404761Y-32978628D02*
X59595237Y-32931009D01*
X59595237Y-32931009D02*
X59690475Y-32883390D01*
X59690475Y-32883390D02*
X59738094Y-32835771D01*
X59738094Y-32835771D02*
X59785713Y-32740533D01*
X59785713Y-32740533D02*
X59785713Y-32645295D01*
X59785713Y-32645295D02*
X59738094Y-32550057D01*
X59738094Y-32550057D02*
X59690475Y-32502438D01*
X59690475Y-32502438D02*
X59595237Y-32454819D01*
X59595237Y-32454819D02*
X59357142Y-32454819D01*
X59357142Y-32454819D02*
X59214285Y-32502438D01*
X58833332Y-33407200D02*
X58690475Y-33454819D01*
X58690475Y-33454819D02*
X58452380Y-33454819D01*
X58452380Y-33454819D02*
X58357142Y-33407200D01*
X58357142Y-33407200D02*
X58309523Y-33359580D01*
X58309523Y-33359580D02*
X58261904Y-33264342D01*
X58261904Y-33264342D02*
X58261904Y-33169104D01*
X58261904Y-33169104D02*
X58309523Y-33073866D01*
X58309523Y-33073866D02*
X58357142Y-33026247D01*
X58357142Y-33026247D02*
X58452380Y-32978628D01*
X58452380Y-32978628D02*
X58642856Y-32931009D01*
X58642856Y-32931009D02*
X58738094Y-32883390D01*
X58738094Y-32883390D02*
X58785713Y-32835771D01*
X58785713Y-32835771D02*
X58833332Y-32740533D01*
X58833332Y-32740533D02*
X58833332Y-32645295D01*
X58833332Y-32645295D02*
X58785713Y-32550057D01*
X58785713Y-32550057D02*
X58738094Y-32502438D01*
X58738094Y-32502438D02*
X58642856Y-32454819D01*
X58642856Y-32454819D02*
X58404761Y-32454819D01*
X58404761Y-32454819D02*
X58261904Y-32502438D01*
X57833332Y-33454819D02*
X57833332Y-32454819D01*
X57499999Y-32454819D02*
X57166666Y-33454819D01*
X57166666Y-33454819D02*
X56833333Y-32454819D01*
X56499999Y-32931009D02*
X56166666Y-32931009D01*
X56023809Y-33454819D02*
X56499999Y-33454819D01*
X56499999Y-33454819D02*
X56499999Y-32454819D01*
X56499999Y-32454819D02*
X56023809Y-32454819D01*
X54261904Y-33359580D02*
X54309523Y-33407200D01*
X54309523Y-33407200D02*
X54452380Y-33454819D01*
X54452380Y-33454819D02*
X54547618Y-33454819D01*
X54547618Y-33454819D02*
X54690475Y-33407200D01*
X54690475Y-33407200D02*
X54785713Y-33311961D01*
X54785713Y-33311961D02*
X54833332Y-33216723D01*
X54833332Y-33216723D02*
X54880951Y-33026247D01*
X54880951Y-33026247D02*
X54880951Y-32883390D01*
X54880951Y-32883390D02*
X54833332Y-32692914D01*
X54833332Y-32692914D02*
X54785713Y-32597676D01*
X54785713Y-32597676D02*
X54690475Y-32502438D01*
X54690475Y-32502438D02*
X54547618Y-32454819D01*
X54547618Y-32454819D02*
X54452380Y-32454819D01*
X54452380Y-32454819D02*
X54309523Y-32502438D01*
X54309523Y-32502438D02*
X54261904Y-32550057D01*
X53880951Y-33169104D02*
X53404761Y-33169104D01*
X53976189Y-33454819D02*
X53642856Y-32454819D01*
X53642856Y-32454819D02*
X53309523Y-33454819D01*
X52976189Y-33454819D02*
X52976189Y-32454819D01*
X52976189Y-32454819D02*
X52404761Y-33454819D01*
X52404761Y-33454819D02*
X52404761Y-32454819D01*
X62571428Y-35454819D02*
X62571428Y-34454819D01*
X62571428Y-34454819D02*
X62000000Y-35454819D01*
X62000000Y-35454819D02*
X62000000Y-34454819D01*
X61523809Y-34454819D02*
X61523809Y-35264342D01*
X61523809Y-35264342D02*
X61476190Y-35359580D01*
X61476190Y-35359580D02*
X61428571Y-35407200D01*
X61428571Y-35407200D02*
X61333333Y-35454819D01*
X61333333Y-35454819D02*
X61142857Y-35454819D01*
X61142857Y-35454819D02*
X61047619Y-35407200D01*
X61047619Y-35407200D02*
X61000000Y-35359580D01*
X61000000Y-35359580D02*
X60952381Y-35264342D01*
X60952381Y-35264342D02*
X60952381Y-34454819D01*
X60476190Y-35454819D02*
X60476190Y-34454819D01*
X60476190Y-34454819D02*
X60142857Y-35169104D01*
X60142857Y-35169104D02*
X59809524Y-34454819D01*
X59809524Y-34454819D02*
X59809524Y-35454819D01*
X59000000Y-34931009D02*
X58857143Y-34978628D01*
X58857143Y-34978628D02*
X58809524Y-35026247D01*
X58809524Y-35026247D02*
X58761905Y-35121485D01*
X58761905Y-35121485D02*
X58761905Y-35264342D01*
X58761905Y-35264342D02*
X58809524Y-35359580D01*
X58809524Y-35359580D02*
X58857143Y-35407200D01*
X58857143Y-35407200D02*
X58952381Y-35454819D01*
X58952381Y-35454819D02*
X59333333Y-35454819D01*
X59333333Y-35454819D02*
X59333333Y-34454819D01*
X59333333Y-34454819D02*
X59000000Y-34454819D01*
X59000000Y-34454819D02*
X58904762Y-34502438D01*
X58904762Y-34502438D02*
X58857143Y-34550057D01*
X58857143Y-34550057D02*
X58809524Y-34645295D01*
X58809524Y-34645295D02*
X58809524Y-34740533D01*
X58809524Y-34740533D02*
X58857143Y-34835771D01*
X58857143Y-34835771D02*
X58904762Y-34883390D01*
X58904762Y-34883390D02*
X59000000Y-34931009D01*
X59000000Y-34931009D02*
X59333333Y-34931009D01*
X58333333Y-34931009D02*
X58000000Y-34931009D01*
X57857143Y-35454819D02*
X58333333Y-35454819D01*
X58333333Y-35454819D02*
X58333333Y-34454819D01*
X58333333Y-34454819D02*
X57857143Y-34454819D01*
X56857143Y-35454819D02*
X57190476Y-34978628D01*
X57428571Y-35454819D02*
X57428571Y-34454819D01*
X57428571Y-34454819D02*
X57047619Y-34454819D01*
X57047619Y-34454819D02*
X56952381Y-34502438D01*
X56952381Y-34502438D02*
X56904762Y-34550057D01*
X56904762Y-34550057D02*
X56857143Y-34645295D01*
X56857143Y-34645295D02*
X56857143Y-34788152D01*
X56857143Y-34788152D02*
X56904762Y-34883390D01*
X56904762Y-34883390D02*
X56952381Y-34931009D01*
X56952381Y-34931009D02*
X57047619Y-34978628D01*
X57047619Y-34978628D02*
X57428571Y-34978628D01*
X56476190Y-35407200D02*
X56333333Y-35454819D01*
X56333333Y-35454819D02*
X56095238Y-35454819D01*
X56095238Y-35454819D02*
X56000000Y-35407200D01*
X56000000Y-35407200D02*
X55952381Y-35359580D01*
X55952381Y-35359580D02*
X55904762Y-35264342D01*
X55904762Y-35264342D02*
X55904762Y-35169104D01*
X55904762Y-35169104D02*
X55952381Y-35073866D01*
X55952381Y-35073866D02*
X56000000Y-35026247D01*
X56000000Y-35026247D02*
X56095238Y-34978628D01*
X56095238Y-34978628D02*
X56285714Y-34931009D01*
X56285714Y-34931009D02*
X56380952Y-34883390D01*
X56380952Y-34883390D02*
X56428571Y-34835771D01*
X56428571Y-34835771D02*
X56476190Y-34740533D01*
X56476190Y-34740533D02*
X56476190Y-34645295D01*
X56476190Y-34645295D02*
X56428571Y-34550057D01*
X56428571Y-34550057D02*
X56380952Y-34502438D01*
X56380952Y-34502438D02*
X56285714Y-34454819D01*
X56285714Y-34454819D02*
X56047619Y-34454819D01*
X56047619Y-34454819D02*
X55904762Y-34502438D01*
X54714285Y-34931009D02*
X53952381Y-34931009D01*
X53952381Y-35216723D02*
X54714285Y-35216723D01*
X52857142Y-34454819D02*
X52285714Y-34454819D01*
X52571428Y-35454819D02*
X52571428Y-34454819D01*
X51952380Y-35454819D02*
X51952380Y-34454819D01*
X51952380Y-34454819D02*
X51571428Y-34454819D01*
X51571428Y-34454819D02*
X51476190Y-34502438D01*
X51476190Y-34502438D02*
X51428571Y-34550057D01*
X51428571Y-34550057D02*
X51380952Y-34645295D01*
X51380952Y-34645295D02*
X51380952Y-34788152D01*
X51380952Y-34788152D02*
X51428571Y-34883390D01*
X51428571Y-34883390D02*
X51476190Y-34931009D01*
X51476190Y-34931009D02*
X51571428Y-34978628D01*
X51571428Y-34978628D02*
X51952380Y-34978628D01*
X64500000Y-37531009D02*
X64357143Y-37578628D01*
X64357143Y-37578628D02*
X64309524Y-37626247D01*
X64309524Y-37626247D02*
X64261905Y-37721485D01*
X64261905Y-37721485D02*
X64261905Y-37864342D01*
X64261905Y-37864342D02*
X64309524Y-37959580D01*
X64309524Y-37959580D02*
X64357143Y-38007200D01*
X64357143Y-38007200D02*
X64452381Y-38054819D01*
X64452381Y-38054819D02*
X64833333Y-38054819D01*
X64833333Y-38054819D02*
X64833333Y-37054819D01*
X64833333Y-37054819D02*
X64500000Y-37054819D01*
X64500000Y-37054819D02*
X64404762Y-37102438D01*
X64404762Y-37102438D02*
X64357143Y-37150057D01*
X64357143Y-37150057D02*
X64309524Y-37245295D01*
X64309524Y-37245295D02*
X64309524Y-37340533D01*
X64309524Y-37340533D02*
X64357143Y-37435771D01*
X64357143Y-37435771D02*
X64404762Y-37483390D01*
X64404762Y-37483390D02*
X64500000Y-37531009D01*
X64500000Y-37531009D02*
X64833333Y-37531009D01*
X63928571Y-38054819D02*
X63404762Y-37388152D01*
X63928571Y-37388152D02*
X63404762Y-38054819D01*
X63119047Y-38054819D02*
X62595238Y-37388152D01*
X63119047Y-37388152D02*
X62595238Y-38054819D01*
X62309523Y-38054819D02*
X61785714Y-37388152D01*
X62309523Y-37388152D02*
X61785714Y-38054819D01*
X61404761Y-37959580D02*
X61357142Y-38007200D01*
X61357142Y-38007200D02*
X61404761Y-38054819D01*
X61404761Y-38054819D02*
X61452380Y-38007200D01*
X61452380Y-38007200D02*
X61404761Y-37959580D01*
X61404761Y-37959580D02*
X61404761Y-38054819D01*
X61404761Y-37435771D02*
X61357142Y-37483390D01*
X61357142Y-37483390D02*
X61404761Y-37531009D01*
X61404761Y-37531009D02*
X61452380Y-37483390D01*
X61452380Y-37483390D02*
X61404761Y-37435771D01*
X61404761Y-37435771D02*
X61404761Y-37531009D01*
X60166666Y-38054819D02*
X60166666Y-37054819D01*
X60166666Y-37054819D02*
X59785714Y-37054819D01*
X59785714Y-37054819D02*
X59690476Y-37102438D01*
X59690476Y-37102438D02*
X59642857Y-37150057D01*
X59642857Y-37150057D02*
X59595238Y-37245295D01*
X59595238Y-37245295D02*
X59595238Y-37388152D01*
X59595238Y-37388152D02*
X59642857Y-37483390D01*
X59642857Y-37483390D02*
X59690476Y-37531009D01*
X59690476Y-37531009D02*
X59785714Y-37578628D01*
X59785714Y-37578628D02*
X60166666Y-37578628D01*
X58595238Y-38054819D02*
X58928571Y-37578628D01*
X59166666Y-38054819D02*
X59166666Y-37054819D01*
X59166666Y-37054819D02*
X58785714Y-37054819D01*
X58785714Y-37054819D02*
X58690476Y-37102438D01*
X58690476Y-37102438D02*
X58642857Y-37150057D01*
X58642857Y-37150057D02*
X58595238Y-37245295D01*
X58595238Y-37245295D02*
X58595238Y-37388152D01*
X58595238Y-37388152D02*
X58642857Y-37483390D01*
X58642857Y-37483390D02*
X58690476Y-37531009D01*
X58690476Y-37531009D02*
X58785714Y-37578628D01*
X58785714Y-37578628D02*
X59166666Y-37578628D01*
X57976190Y-37054819D02*
X57785714Y-37054819D01*
X57785714Y-37054819D02*
X57690476Y-37102438D01*
X57690476Y-37102438D02*
X57595238Y-37197676D01*
X57595238Y-37197676D02*
X57547619Y-37388152D01*
X57547619Y-37388152D02*
X57547619Y-37721485D01*
X57547619Y-37721485D02*
X57595238Y-37911961D01*
X57595238Y-37911961D02*
X57690476Y-38007200D01*
X57690476Y-38007200D02*
X57785714Y-38054819D01*
X57785714Y-38054819D02*
X57976190Y-38054819D01*
X57976190Y-38054819D02*
X58071428Y-38007200D01*
X58071428Y-38007200D02*
X58166666Y-37911961D01*
X58166666Y-37911961D02*
X58214285Y-37721485D01*
X58214285Y-37721485D02*
X58214285Y-37388152D01*
X58214285Y-37388152D02*
X58166666Y-37197676D01*
X58166666Y-37197676D02*
X58071428Y-37102438D01*
X58071428Y-37102438D02*
X57976190Y-37054819D01*
X56785714Y-37531009D02*
X56642857Y-37578628D01*
X56642857Y-37578628D02*
X56595238Y-37626247D01*
X56595238Y-37626247D02*
X56547619Y-37721485D01*
X56547619Y-37721485D02*
X56547619Y-37864342D01*
X56547619Y-37864342D02*
X56595238Y-37959580D01*
X56595238Y-37959580D02*
X56642857Y-38007200D01*
X56642857Y-38007200D02*
X56738095Y-38054819D01*
X56738095Y-38054819D02*
X57119047Y-38054819D01*
X57119047Y-38054819D02*
X57119047Y-37054819D01*
X57119047Y-37054819D02*
X56785714Y-37054819D01*
X56785714Y-37054819D02*
X56690476Y-37102438D01*
X56690476Y-37102438D02*
X56642857Y-37150057D01*
X56642857Y-37150057D02*
X56595238Y-37245295D01*
X56595238Y-37245295D02*
X56595238Y-37340533D01*
X56595238Y-37340533D02*
X56642857Y-37435771D01*
X56642857Y-37435771D02*
X56690476Y-37483390D01*
X56690476Y-37483390D02*
X56785714Y-37531009D01*
X56785714Y-37531009D02*
X57119047Y-37531009D01*
X56119047Y-37531009D02*
X55785714Y-37531009D01*
X55642857Y-38054819D02*
X56119047Y-38054819D01*
X56119047Y-38054819D02*
X56119047Y-37054819D01*
X56119047Y-37054819D02*
X55642857Y-37054819D01*
X54119047Y-37531009D02*
X53976190Y-37578628D01*
X53976190Y-37578628D02*
X53928571Y-37626247D01*
X53928571Y-37626247D02*
X53880952Y-37721485D01*
X53880952Y-37721485D02*
X53880952Y-37864342D01*
X53880952Y-37864342D02*
X53928571Y-37959580D01*
X53928571Y-37959580D02*
X53976190Y-38007200D01*
X53976190Y-38007200D02*
X54071428Y-38054819D01*
X54071428Y-38054819D02*
X54452380Y-38054819D01*
X54452380Y-38054819D02*
X54452380Y-37054819D01*
X54452380Y-37054819D02*
X54119047Y-37054819D01*
X54119047Y-37054819D02*
X54023809Y-37102438D01*
X54023809Y-37102438D02*
X53976190Y-37150057D01*
X53976190Y-37150057D02*
X53928571Y-37245295D01*
X53928571Y-37245295D02*
X53928571Y-37340533D01*
X53928571Y-37340533D02*
X53976190Y-37435771D01*
X53976190Y-37435771D02*
X54023809Y-37483390D01*
X54023809Y-37483390D02*
X54119047Y-37531009D01*
X54119047Y-37531009D02*
X54452380Y-37531009D01*
X53261904Y-37054819D02*
X53071428Y-37054819D01*
X53071428Y-37054819D02*
X52976190Y-37102438D01*
X52976190Y-37102438D02*
X52880952Y-37197676D01*
X52880952Y-37197676D02*
X52833333Y-37388152D01*
X52833333Y-37388152D02*
X52833333Y-37721485D01*
X52833333Y-37721485D02*
X52880952Y-37911961D01*
X52880952Y-37911961D02*
X52976190Y-38007200D01*
X52976190Y-38007200D02*
X53071428Y-38054819D01*
X53071428Y-38054819D02*
X53261904Y-38054819D01*
X53261904Y-38054819D02*
X53357142Y-38007200D01*
X53357142Y-38007200D02*
X53452380Y-37911961D01*
X53452380Y-37911961D02*
X53499999Y-37721485D01*
X53499999Y-37721485D02*
X53499999Y-37388152D01*
X53499999Y-37388152D02*
X53452380Y-37197676D01*
X53452380Y-37197676D02*
X53357142Y-37102438D01*
X53357142Y-37102438D02*
X53261904Y-37054819D01*
X52547618Y-37054819D02*
X51976190Y-37054819D01*
X52261904Y-38054819D02*
X52261904Y-37054819D01*
X51785713Y-37054819D02*
X51214285Y-37054819D01*
X51499999Y-38054819D02*
X51499999Y-37054819D01*
X50690475Y-37054819D02*
X50499999Y-37054819D01*
X50499999Y-37054819D02*
X50404761Y-37102438D01*
X50404761Y-37102438D02*
X50309523Y-37197676D01*
X50309523Y-37197676D02*
X50261904Y-37388152D01*
X50261904Y-37388152D02*
X50261904Y-37721485D01*
X50261904Y-37721485D02*
X50309523Y-37911961D01*
X50309523Y-37911961D02*
X50404761Y-38007200D01*
X50404761Y-38007200D02*
X50499999Y-38054819D01*
X50499999Y-38054819D02*
X50690475Y-38054819D01*
X50690475Y-38054819D02*
X50785713Y-38007200D01*
X50785713Y-38007200D02*
X50880951Y-37911961D01*
X50880951Y-37911961D02*
X50928570Y-37721485D01*
X50928570Y-37721485D02*
X50928570Y-37388152D01*
X50928570Y-37388152D02*
X50880951Y-37197676D01*
X50880951Y-37197676D02*
X50785713Y-37102438D01*
X50785713Y-37102438D02*
X50690475Y-37054819D01*
X49833332Y-38054819D02*
X49833332Y-37054819D01*
X49833332Y-37054819D02*
X49499999Y-37769104D01*
X49499999Y-37769104D02*
X49166666Y-37054819D01*
X49166666Y-37054819D02*
X49166666Y-38054819D01*
X69114285Y-32154819D02*
X69590475Y-32154819D01*
X69590475Y-32154819D02*
X69638094Y-32631009D01*
X69638094Y-32631009D02*
X69590475Y-32583390D01*
X69590475Y-32583390D02*
X69495237Y-32535771D01*
X69495237Y-32535771D02*
X69257142Y-32535771D01*
X69257142Y-32535771D02*
X69161904Y-32583390D01*
X69161904Y-32583390D02*
X69114285Y-32631009D01*
X69114285Y-32631009D02*
X69066666Y-32726247D01*
X69066666Y-32726247D02*
X69066666Y-32964342D01*
X69066666Y-32964342D02*
X69114285Y-33059580D01*
X69114285Y-33059580D02*
X69161904Y-33107200D01*
X69161904Y-33107200D02*
X69257142Y-33154819D01*
X69257142Y-33154819D02*
X69495237Y-33154819D01*
X69495237Y-33154819D02*
X69590475Y-33107200D01*
X69590475Y-33107200D02*
X69638094Y-33059580D01*
X68447618Y-32154819D02*
X68352380Y-32154819D01*
X68352380Y-32154819D02*
X68257142Y-32202438D01*
X68257142Y-32202438D02*
X68209523Y-32250057D01*
X68209523Y-32250057D02*
X68161904Y-32345295D01*
X68161904Y-32345295D02*
X68114285Y-32535771D01*
X68114285Y-32535771D02*
X68114285Y-32773866D01*
X68114285Y-32773866D02*
X68161904Y-32964342D01*
X68161904Y-32964342D02*
X68209523Y-33059580D01*
X68209523Y-33059580D02*
X68257142Y-33107200D01*
X68257142Y-33107200D02*
X68352380Y-33154819D01*
X68352380Y-33154819D02*
X68447618Y-33154819D01*
X68447618Y-33154819D02*
X68542856Y-33107200D01*
X68542856Y-33107200D02*
X68590475Y-33059580D01*
X68590475Y-33059580D02*
X68638094Y-32964342D01*
X68638094Y-32964342D02*
X68685713Y-32773866D01*
X68685713Y-32773866D02*
X68685713Y-32535771D01*
X68685713Y-32535771D02*
X68638094Y-32345295D01*
X68638094Y-32345295D02*
X68590475Y-32250057D01*
X68590475Y-32250057D02*
X68542856Y-32202438D01*
X68542856Y-32202438D02*
X68447618Y-32154819D01*
X67209523Y-32154819D02*
X67685713Y-32154819D01*
X67685713Y-32154819D02*
X67733332Y-32631009D01*
X67733332Y-32631009D02*
X67685713Y-32583390D01*
X67685713Y-32583390D02*
X67590475Y-32535771D01*
X67590475Y-32535771D02*
X67352380Y-32535771D01*
X67352380Y-32535771D02*
X67257142Y-32583390D01*
X67257142Y-32583390D02*
X67209523Y-32631009D01*
X67209523Y-32631009D02*
X67161904Y-32726247D01*
X67161904Y-32726247D02*
X67161904Y-32964342D01*
X67161904Y-32964342D02*
X67209523Y-33059580D01*
X67209523Y-33059580D02*
X67257142Y-33107200D01*
X67257142Y-33107200D02*
X67352380Y-33154819D01*
X67352380Y-33154819D02*
X67590475Y-33154819D01*
X67590475Y-33154819D02*
X67685713Y-33107200D01*
X67685713Y-33107200D02*
X67733332Y-33059580D01*
X69222528Y-36819559D02*
X69698718Y-36819559D01*
X69698718Y-36819559D02*
X69746337Y-37295749D01*
X69746337Y-37295749D02*
X69698718Y-37248130D01*
X69698718Y-37248130D02*
X69603480Y-37200511D01*
X69603480Y-37200511D02*
X69365385Y-37200511D01*
X69365385Y-37200511D02*
X69270147Y-37248130D01*
X69270147Y-37248130D02*
X69222528Y-37295749D01*
X69222528Y-37295749D02*
X69174909Y-37390987D01*
X69174909Y-37390987D02*
X69174909Y-37629082D01*
X69174909Y-37629082D02*
X69222528Y-37724320D01*
X69222528Y-37724320D02*
X69270147Y-37771940D01*
X69270147Y-37771940D02*
X69365385Y-37819559D01*
X69365385Y-37819559D02*
X69603480Y-37819559D01*
X69603480Y-37819559D02*
X69698718Y-37771940D01*
X69698718Y-37771940D02*
X69746337Y-37724320D01*
X68555861Y-36819559D02*
X68460623Y-36819559D01*
X68460623Y-36819559D02*
X68365385Y-36867178D01*
X68365385Y-36867178D02*
X68317766Y-36914797D01*
X68317766Y-36914797D02*
X68270147Y-37010035D01*
X68270147Y-37010035D02*
X68222528Y-37200511D01*
X68222528Y-37200511D02*
X68222528Y-37438606D01*
X68222528Y-37438606D02*
X68270147Y-37629082D01*
X68270147Y-37629082D02*
X68317766Y-37724320D01*
X68317766Y-37724320D02*
X68365385Y-37771940D01*
X68365385Y-37771940D02*
X68460623Y-37819559D01*
X68460623Y-37819559D02*
X68555861Y-37819559D01*
X68555861Y-37819559D02*
X68651099Y-37771940D01*
X68651099Y-37771940D02*
X68698718Y-37724320D01*
X68698718Y-37724320D02*
X68746337Y-37629082D01*
X68746337Y-37629082D02*
X68793956Y-37438606D01*
X68793956Y-37438606D02*
X68793956Y-37200511D01*
X68793956Y-37200511D02*
X68746337Y-37010035D01*
X68746337Y-37010035D02*
X68698718Y-36914797D01*
X68698718Y-36914797D02*
X68651099Y-36867178D01*
X68651099Y-36867178D02*
X68555861Y-36819559D01*
X67365385Y-37152892D02*
X67365385Y-37819559D01*
X67603480Y-36771940D02*
X67841575Y-37486225D01*
X67841575Y-37486225D02*
X67222528Y-37486225D01*
X78438094Y-3550057D02*
X78390475Y-3502438D01*
X78390475Y-3502438D02*
X78295237Y-3454819D01*
X78295237Y-3454819D02*
X78057142Y-3454819D01*
X78057142Y-3454819D02*
X77961904Y-3502438D01*
X77961904Y-3502438D02*
X77914285Y-3550057D01*
X77914285Y-3550057D02*
X77866666Y-3645295D01*
X77866666Y-3645295D02*
X77866666Y-3740533D01*
X77866666Y-3740533D02*
X77914285Y-3883390D01*
X77914285Y-3883390D02*
X78485713Y-4454819D01*
X78485713Y-4454819D02*
X77866666Y-4454819D01*
X77247618Y-3454819D02*
X77152380Y-3454819D01*
X77152380Y-3454819D02*
X77057142Y-3502438D01*
X77057142Y-3502438D02*
X77009523Y-3550057D01*
X77009523Y-3550057D02*
X76961904Y-3645295D01*
X76961904Y-3645295D02*
X76914285Y-3835771D01*
X76914285Y-3835771D02*
X76914285Y-4073866D01*
X76914285Y-4073866D02*
X76961904Y-4264342D01*
X76961904Y-4264342D02*
X77009523Y-4359580D01*
X77009523Y-4359580D02*
X77057142Y-4407200D01*
X77057142Y-4407200D02*
X77152380Y-4454819D01*
X77152380Y-4454819D02*
X77247618Y-4454819D01*
X77247618Y-4454819D02*
X77342856Y-4407200D01*
X77342856Y-4407200D02*
X77390475Y-4359580D01*
X77390475Y-4359580D02*
X77438094Y-4264342D01*
X77438094Y-4264342D02*
X77485713Y-4073866D01*
X77485713Y-4073866D02*
X77485713Y-3835771D01*
X77485713Y-3835771D02*
X77438094Y-3645295D01*
X77438094Y-3645295D02*
X77390475Y-3550057D01*
X77390475Y-3550057D02*
X77342856Y-3502438D01*
X77342856Y-3502438D02*
X77247618Y-3454819D01*
X75961904Y-4454819D02*
X76533332Y-4454819D01*
X76247618Y-4454819D02*
X76247618Y-3454819D01*
X76247618Y-3454819D02*
X76342856Y-3597676D01*
X76342856Y-3597676D02*
X76438094Y-3692914D01*
X76438094Y-3692914D02*
X76533332Y-3740533D01*
X79238094Y-8350057D02*
X79190475Y-8302438D01*
X79190475Y-8302438D02*
X79095237Y-8254819D01*
X79095237Y-8254819D02*
X78857142Y-8254819D01*
X78857142Y-8254819D02*
X78761904Y-8302438D01*
X78761904Y-8302438D02*
X78714285Y-8350057D01*
X78714285Y-8350057D02*
X78666666Y-8445295D01*
X78666666Y-8445295D02*
X78666666Y-8540533D01*
X78666666Y-8540533D02*
X78714285Y-8683390D01*
X78714285Y-8683390D02*
X79285713Y-9254819D01*
X79285713Y-9254819D02*
X78666666Y-9254819D01*
X77714285Y-9254819D02*
X78285713Y-9254819D01*
X77999999Y-9254819D02*
X77999999Y-8254819D01*
X77999999Y-8254819D02*
X78095237Y-8397676D01*
X78095237Y-8397676D02*
X78190475Y-8492914D01*
X78190475Y-8492914D02*
X78285713Y-8540533D01*
X76761904Y-9254819D02*
X77333332Y-9254819D01*
X77047618Y-9254819D02*
X77047618Y-8254819D01*
X77047618Y-8254819D02*
X77142856Y-8397676D01*
X77142856Y-8397676D02*
X77238094Y-8492914D01*
X77238094Y-8492914D02*
X77333332Y-8540533D01*
X82238094Y-8350057D02*
X82190475Y-8302438D01*
X82190475Y-8302438D02*
X82095237Y-8254819D01*
X82095237Y-8254819D02*
X81857142Y-8254819D01*
X81857142Y-8254819D02*
X81761904Y-8302438D01*
X81761904Y-8302438D02*
X81714285Y-8350057D01*
X81714285Y-8350057D02*
X81666666Y-8445295D01*
X81666666Y-8445295D02*
X81666666Y-8540533D01*
X81666666Y-8540533D02*
X81714285Y-8683390D01*
X81714285Y-8683390D02*
X82285713Y-9254819D01*
X82285713Y-9254819D02*
X81666666Y-9254819D01*
X80714285Y-9254819D02*
X81285713Y-9254819D01*
X80999999Y-9254819D02*
X80999999Y-8254819D01*
X80999999Y-8254819D02*
X81095237Y-8397676D01*
X81095237Y-8397676D02*
X81190475Y-8492914D01*
X81190475Y-8492914D02*
X81285713Y-8540533D01*
X80333332Y-8350057D02*
X80285713Y-8302438D01*
X80285713Y-8302438D02*
X80190475Y-8254819D01*
X80190475Y-8254819D02*
X79952380Y-8254819D01*
X79952380Y-8254819D02*
X79857142Y-8302438D01*
X79857142Y-8302438D02*
X79809523Y-8350057D01*
X79809523Y-8350057D02*
X79761904Y-8445295D01*
X79761904Y-8445295D02*
X79761904Y-8540533D01*
X79761904Y-8540533D02*
X79809523Y-8683390D01*
X79809523Y-8683390D02*
X80380951Y-9254819D01*
X80380951Y-9254819D02*
X79761904Y-9254819D01*
X84238094Y-10350057D02*
X84190475Y-10302438D01*
X84190475Y-10302438D02*
X84095237Y-10254819D01*
X84095237Y-10254819D02*
X83857142Y-10254819D01*
X83857142Y-10254819D02*
X83761904Y-10302438D01*
X83761904Y-10302438D02*
X83714285Y-10350057D01*
X83714285Y-10350057D02*
X83666666Y-10445295D01*
X83666666Y-10445295D02*
X83666666Y-10540533D01*
X83666666Y-10540533D02*
X83714285Y-10683390D01*
X83714285Y-10683390D02*
X84285713Y-11254819D01*
X84285713Y-11254819D02*
X83666666Y-11254819D01*
X83047618Y-10254819D02*
X82952380Y-10254819D01*
X82952380Y-10254819D02*
X82857142Y-10302438D01*
X82857142Y-10302438D02*
X82809523Y-10350057D01*
X82809523Y-10350057D02*
X82761904Y-10445295D01*
X82761904Y-10445295D02*
X82714285Y-10635771D01*
X82714285Y-10635771D02*
X82714285Y-10873866D01*
X82714285Y-10873866D02*
X82761904Y-11064342D01*
X82761904Y-11064342D02*
X82809523Y-11159580D01*
X82809523Y-11159580D02*
X82857142Y-11207200D01*
X82857142Y-11207200D02*
X82952380Y-11254819D01*
X82952380Y-11254819D02*
X83047618Y-11254819D01*
X83047618Y-11254819D02*
X83142856Y-11207200D01*
X83142856Y-11207200D02*
X83190475Y-11159580D01*
X83190475Y-11159580D02*
X83238094Y-11064342D01*
X83238094Y-11064342D02*
X83285713Y-10873866D01*
X83285713Y-10873866D02*
X83285713Y-10635771D01*
X83285713Y-10635771D02*
X83238094Y-10445295D01*
X83238094Y-10445295D02*
X83190475Y-10350057D01*
X83190475Y-10350057D02*
X83142856Y-10302438D01*
X83142856Y-10302438D02*
X83047618Y-10254819D01*
X82333332Y-10350057D02*
X82285713Y-10302438D01*
X82285713Y-10302438D02*
X82190475Y-10254819D01*
X82190475Y-10254819D02*
X81952380Y-10254819D01*
X81952380Y-10254819D02*
X81857142Y-10302438D01*
X81857142Y-10302438D02*
X81809523Y-10350057D01*
X81809523Y-10350057D02*
X81761904Y-10445295D01*
X81761904Y-10445295D02*
X81761904Y-10540533D01*
X81761904Y-10540533D02*
X81809523Y-10683390D01*
X81809523Y-10683390D02*
X82380951Y-11254819D01*
X82380951Y-11254819D02*
X81761904Y-11254819D01*
X85238094Y-8350057D02*
X85190475Y-8302438D01*
X85190475Y-8302438D02*
X85095237Y-8254819D01*
X85095237Y-8254819D02*
X84857142Y-8254819D01*
X84857142Y-8254819D02*
X84761904Y-8302438D01*
X84761904Y-8302438D02*
X84714285Y-8350057D01*
X84714285Y-8350057D02*
X84666666Y-8445295D01*
X84666666Y-8445295D02*
X84666666Y-8540533D01*
X84666666Y-8540533D02*
X84714285Y-8683390D01*
X84714285Y-8683390D02*
X85285713Y-9254819D01*
X85285713Y-9254819D02*
X84666666Y-9254819D01*
X83714285Y-9254819D02*
X84285713Y-9254819D01*
X83999999Y-9254819D02*
X83999999Y-8254819D01*
X83999999Y-8254819D02*
X84095237Y-8397676D01*
X84095237Y-8397676D02*
X84190475Y-8492914D01*
X84190475Y-8492914D02*
X84285713Y-8540533D01*
X83380951Y-8254819D02*
X82761904Y-8254819D01*
X82761904Y-8254819D02*
X83095237Y-8635771D01*
X83095237Y-8635771D02*
X82952380Y-8635771D01*
X82952380Y-8635771D02*
X82857142Y-8683390D01*
X82857142Y-8683390D02*
X82809523Y-8731009D01*
X82809523Y-8731009D02*
X82761904Y-8826247D01*
X82761904Y-8826247D02*
X82761904Y-9064342D01*
X82761904Y-9064342D02*
X82809523Y-9159580D01*
X82809523Y-9159580D02*
X82857142Y-9207200D01*
X82857142Y-9207200D02*
X82952380Y-9254819D01*
X82952380Y-9254819D02*
X83238094Y-9254819D01*
X83238094Y-9254819D02*
X83333332Y-9207200D01*
X83333332Y-9207200D02*
X83380951Y-9159580D01*
X84714285Y-39904819D02*
X85190475Y-39904819D01*
X85190475Y-39904819D02*
X85238094Y-40381009D01*
X85238094Y-40381009D02*
X85190475Y-40333390D01*
X85190475Y-40333390D02*
X85095237Y-40285771D01*
X85095237Y-40285771D02*
X84857142Y-40285771D01*
X84857142Y-40285771D02*
X84761904Y-40333390D01*
X84761904Y-40333390D02*
X84714285Y-40381009D01*
X84714285Y-40381009D02*
X84666666Y-40476247D01*
X84666666Y-40476247D02*
X84666666Y-40714342D01*
X84666666Y-40714342D02*
X84714285Y-40809580D01*
X84714285Y-40809580D02*
X84761904Y-40857200D01*
X84761904Y-40857200D02*
X84857142Y-40904819D01*
X84857142Y-40904819D02*
X85095237Y-40904819D01*
X85095237Y-40904819D02*
X85190475Y-40857200D01*
X85190475Y-40857200D02*
X85238094Y-40809580D01*
X84047618Y-39904819D02*
X83952380Y-39904819D01*
X83952380Y-39904819D02*
X83857142Y-39952438D01*
X83857142Y-39952438D02*
X83809523Y-40000057D01*
X83809523Y-40000057D02*
X83761904Y-40095295D01*
X83761904Y-40095295D02*
X83714285Y-40285771D01*
X83714285Y-40285771D02*
X83714285Y-40523866D01*
X83714285Y-40523866D02*
X83761904Y-40714342D01*
X83761904Y-40714342D02*
X83809523Y-40809580D01*
X83809523Y-40809580D02*
X83857142Y-40857200D01*
X83857142Y-40857200D02*
X83952380Y-40904819D01*
X83952380Y-40904819D02*
X84047618Y-40904819D01*
X84047618Y-40904819D02*
X84142856Y-40857200D01*
X84142856Y-40857200D02*
X84190475Y-40809580D01*
X84190475Y-40809580D02*
X84238094Y-40714342D01*
X84238094Y-40714342D02*
X84285713Y-40523866D01*
X84285713Y-40523866D02*
X84285713Y-40285771D01*
X84285713Y-40285771D02*
X84238094Y-40095295D01*
X84238094Y-40095295D02*
X84190475Y-40000057D01*
X84190475Y-40000057D02*
X84142856Y-39952438D01*
X84142856Y-39952438D02*
X84047618Y-39904819D01*
X82761904Y-40904819D02*
X83333332Y-40904819D01*
X83047618Y-40904819D02*
X83047618Y-39904819D01*
X83047618Y-39904819D02*
X83142856Y-40047676D01*
X83142856Y-40047676D02*
X83238094Y-40142914D01*
X83238094Y-40142914D02*
X83333332Y-40190533D01*
X87314285Y-21054819D02*
X87790475Y-21054819D01*
X87790475Y-21054819D02*
X87838094Y-21531009D01*
X87838094Y-21531009D02*
X87790475Y-21483390D01*
X87790475Y-21483390D02*
X87695237Y-21435771D01*
X87695237Y-21435771D02*
X87457142Y-21435771D01*
X87457142Y-21435771D02*
X87361904Y-21483390D01*
X87361904Y-21483390D02*
X87314285Y-21531009D01*
X87314285Y-21531009D02*
X87266666Y-21626247D01*
X87266666Y-21626247D02*
X87266666Y-21864342D01*
X87266666Y-21864342D02*
X87314285Y-21959580D01*
X87314285Y-21959580D02*
X87361904Y-22007200D01*
X87361904Y-22007200D02*
X87457142Y-22054819D01*
X87457142Y-22054819D02*
X87695237Y-22054819D01*
X87695237Y-22054819D02*
X87790475Y-22007200D01*
X87790475Y-22007200D02*
X87838094Y-21959580D01*
X86647618Y-21054819D02*
X86552380Y-21054819D01*
X86552380Y-21054819D02*
X86457142Y-21102438D01*
X86457142Y-21102438D02*
X86409523Y-21150057D01*
X86409523Y-21150057D02*
X86361904Y-21245295D01*
X86361904Y-21245295D02*
X86314285Y-21435771D01*
X86314285Y-21435771D02*
X86314285Y-21673866D01*
X86314285Y-21673866D02*
X86361904Y-21864342D01*
X86361904Y-21864342D02*
X86409523Y-21959580D01*
X86409523Y-21959580D02*
X86457142Y-22007200D01*
X86457142Y-22007200D02*
X86552380Y-22054819D01*
X86552380Y-22054819D02*
X86647618Y-22054819D01*
X86647618Y-22054819D02*
X86742856Y-22007200D01*
X86742856Y-22007200D02*
X86790475Y-21959580D01*
X86790475Y-21959580D02*
X86838094Y-21864342D01*
X86838094Y-21864342D02*
X86885713Y-21673866D01*
X86885713Y-21673866D02*
X86885713Y-21435771D01*
X86885713Y-21435771D02*
X86838094Y-21245295D01*
X86838094Y-21245295D02*
X86790475Y-21150057D01*
X86790475Y-21150057D02*
X86742856Y-21102438D01*
X86742856Y-21102438D02*
X86647618Y-21054819D01*
X85457142Y-21054819D02*
X85647618Y-21054819D01*
X85647618Y-21054819D02*
X85742856Y-21102438D01*
X85742856Y-21102438D02*
X85790475Y-21150057D01*
X85790475Y-21150057D02*
X85885713Y-21292914D01*
X85885713Y-21292914D02*
X85933332Y-21483390D01*
X85933332Y-21483390D02*
X85933332Y-21864342D01*
X85933332Y-21864342D02*
X85885713Y-21959580D01*
X85885713Y-21959580D02*
X85838094Y-22007200D01*
X85838094Y-22007200D02*
X85742856Y-22054819D01*
X85742856Y-22054819D02*
X85552380Y-22054819D01*
X85552380Y-22054819D02*
X85457142Y-22007200D01*
X85457142Y-22007200D02*
X85409523Y-21959580D01*
X85409523Y-21959580D02*
X85361904Y-21864342D01*
X85361904Y-21864342D02*
X85361904Y-21626247D01*
X85361904Y-21626247D02*
X85409523Y-21531009D01*
X85409523Y-21531009D02*
X85457142Y-21483390D01*
X85457142Y-21483390D02*
X85552380Y-21435771D01*
X85552380Y-21435771D02*
X85742856Y-21435771D01*
X85742856Y-21435771D02*
X85838094Y-21483390D01*
X85838094Y-21483390D02*
X85885713Y-21531009D01*
X85885713Y-21531009D02*
X85933332Y-21626247D01*
X87314285Y-32854819D02*
X87790475Y-32854819D01*
X87790475Y-32854819D02*
X87838094Y-33331009D01*
X87838094Y-33331009D02*
X87790475Y-33283390D01*
X87790475Y-33283390D02*
X87695237Y-33235771D01*
X87695237Y-33235771D02*
X87457142Y-33235771D01*
X87457142Y-33235771D02*
X87361904Y-33283390D01*
X87361904Y-33283390D02*
X87314285Y-33331009D01*
X87314285Y-33331009D02*
X87266666Y-33426247D01*
X87266666Y-33426247D02*
X87266666Y-33664342D01*
X87266666Y-33664342D02*
X87314285Y-33759580D01*
X87314285Y-33759580D02*
X87361904Y-33807200D01*
X87361904Y-33807200D02*
X87457142Y-33854819D01*
X87457142Y-33854819D02*
X87695237Y-33854819D01*
X87695237Y-33854819D02*
X87790475Y-33807200D01*
X87790475Y-33807200D02*
X87838094Y-33759580D01*
X86647618Y-32854819D02*
X86552380Y-32854819D01*
X86552380Y-32854819D02*
X86457142Y-32902438D01*
X86457142Y-32902438D02*
X86409523Y-32950057D01*
X86409523Y-32950057D02*
X86361904Y-33045295D01*
X86361904Y-33045295D02*
X86314285Y-33235771D01*
X86314285Y-33235771D02*
X86314285Y-33473866D01*
X86314285Y-33473866D02*
X86361904Y-33664342D01*
X86361904Y-33664342D02*
X86409523Y-33759580D01*
X86409523Y-33759580D02*
X86457142Y-33807200D01*
X86457142Y-33807200D02*
X86552380Y-33854819D01*
X86552380Y-33854819D02*
X86647618Y-33854819D01*
X86647618Y-33854819D02*
X86742856Y-33807200D01*
X86742856Y-33807200D02*
X86790475Y-33759580D01*
X86790475Y-33759580D02*
X86838094Y-33664342D01*
X86838094Y-33664342D02*
X86885713Y-33473866D01*
X86885713Y-33473866D02*
X86885713Y-33235771D01*
X86885713Y-33235771D02*
X86838094Y-33045295D01*
X86838094Y-33045295D02*
X86790475Y-32950057D01*
X86790475Y-32950057D02*
X86742856Y-32902438D01*
X86742856Y-32902438D02*
X86647618Y-32854819D01*
X85980951Y-32854819D02*
X85361904Y-32854819D01*
X85361904Y-32854819D02*
X85695237Y-33235771D01*
X85695237Y-33235771D02*
X85552380Y-33235771D01*
X85552380Y-33235771D02*
X85457142Y-33283390D01*
X85457142Y-33283390D02*
X85409523Y-33331009D01*
X85409523Y-33331009D02*
X85361904Y-33426247D01*
X85361904Y-33426247D02*
X85361904Y-33664342D01*
X85361904Y-33664342D02*
X85409523Y-33759580D01*
X85409523Y-33759580D02*
X85457142Y-33807200D01*
X85457142Y-33807200D02*
X85552380Y-33854819D01*
X85552380Y-33854819D02*
X85838094Y-33854819D01*
X85838094Y-33854819D02*
X85933332Y-33807200D01*
X85933332Y-33807200D02*
X85980951Y-33759580D01*
X16154819Y-34785714D02*
X16154819Y-34309524D01*
X16154819Y-34309524D02*
X16631009Y-34261905D01*
X16631009Y-34261905D02*
X16583390Y-34309524D01*
X16583390Y-34309524D02*
X16535771Y-34404762D01*
X16535771Y-34404762D02*
X16535771Y-34642857D01*
X16535771Y-34642857D02*
X16583390Y-34738095D01*
X16583390Y-34738095D02*
X16631009Y-34785714D01*
X16631009Y-34785714D02*
X16726247Y-34833333D01*
X16726247Y-34833333D02*
X16964342Y-34833333D01*
X16964342Y-34833333D02*
X17059580Y-34785714D01*
X17059580Y-34785714D02*
X17107200Y-34738095D01*
X17107200Y-34738095D02*
X17154819Y-34642857D01*
X17154819Y-34642857D02*
X17154819Y-34404762D01*
X17154819Y-34404762D02*
X17107200Y-34309524D01*
X17107200Y-34309524D02*
X17059580Y-34261905D01*
X16154819Y-35452381D02*
X16154819Y-35547619D01*
X16154819Y-35547619D02*
X16202438Y-35642857D01*
X16202438Y-35642857D02*
X16250057Y-35690476D01*
X16250057Y-35690476D02*
X16345295Y-35738095D01*
X16345295Y-35738095D02*
X16535771Y-35785714D01*
X16535771Y-35785714D02*
X16773866Y-35785714D01*
X16773866Y-35785714D02*
X16964342Y-35738095D01*
X16964342Y-35738095D02*
X17059580Y-35690476D01*
X17059580Y-35690476D02*
X17107200Y-35642857D01*
X17107200Y-35642857D02*
X17154819Y-35547619D01*
X17154819Y-35547619D02*
X17154819Y-35452381D01*
X17154819Y-35452381D02*
X17107200Y-35357143D01*
X17107200Y-35357143D02*
X17059580Y-35309524D01*
X17059580Y-35309524D02*
X16964342Y-35261905D01*
X16964342Y-35261905D02*
X16773866Y-35214286D01*
X16773866Y-35214286D02*
X16535771Y-35214286D01*
X16535771Y-35214286D02*
X16345295Y-35261905D01*
X16345295Y-35261905D02*
X16250057Y-35309524D01*
X16250057Y-35309524D02*
X16202438Y-35357143D01*
X16202438Y-35357143D02*
X16154819Y-35452381D01*
X17154819Y-36261905D02*
X17154819Y-36452381D01*
X17154819Y-36452381D02*
X17107200Y-36547619D01*
X17107200Y-36547619D02*
X17059580Y-36595238D01*
X17059580Y-36595238D02*
X16916723Y-36690476D01*
X16916723Y-36690476D02*
X16726247Y-36738095D01*
X16726247Y-36738095D02*
X16345295Y-36738095D01*
X16345295Y-36738095D02*
X16250057Y-36690476D01*
X16250057Y-36690476D02*
X16202438Y-36642857D01*
X16202438Y-36642857D02*
X16154819Y-36547619D01*
X16154819Y-36547619D02*
X16154819Y-36357143D01*
X16154819Y-36357143D02*
X16202438Y-36261905D01*
X16202438Y-36261905D02*
X16250057Y-36214286D01*
X16250057Y-36214286D02*
X16345295Y-36166667D01*
X16345295Y-36166667D02*
X16583390Y-36166667D01*
X16583390Y-36166667D02*
X16678628Y-36214286D01*
X16678628Y-36214286D02*
X16726247Y-36261905D01*
X16726247Y-36261905D02*
X16773866Y-36357143D01*
X16773866Y-36357143D02*
X16773866Y-36547619D01*
X16773866Y-36547619D02*
X16726247Y-36642857D01*
X16726247Y-36642857D02*
X16678628Y-36690476D01*
X16678628Y-36690476D02*
X16583390Y-36738095D01*
X86604818Y-11480952D02*
X86128627Y-11147619D01*
X86604818Y-10909524D02*
X85604818Y-10909524D01*
X85604818Y-10909524D02*
X85604818Y-11290476D01*
X85604818Y-11290476D02*
X85652437Y-11385714D01*
X85652437Y-11385714D02*
X85700056Y-11433333D01*
X85700056Y-11433333D02*
X85795294Y-11480952D01*
X85795294Y-11480952D02*
X85938151Y-11480952D01*
X85938151Y-11480952D02*
X86033389Y-11433333D01*
X86033389Y-11433333D02*
X86081008Y-11385714D01*
X86081008Y-11385714D02*
X86128627Y-11290476D01*
X86128627Y-11290476D02*
X86128627Y-10909524D01*
X86604818Y-12433333D02*
X86604818Y-11861905D01*
X86604818Y-12147619D02*
X85604818Y-12147619D01*
X85604818Y-12147619D02*
X85747675Y-12052381D01*
X85747675Y-12052381D02*
X85842913Y-11957143D01*
X85842913Y-11957143D02*
X85890532Y-11861905D01*
X85604818Y-13290476D02*
X85604818Y-13100000D01*
X85604818Y-13100000D02*
X85652437Y-13004762D01*
X85652437Y-13004762D02*
X85700056Y-12957143D01*
X85700056Y-12957143D02*
X85842913Y-12861905D01*
X85842913Y-12861905D02*
X86033389Y-12814286D01*
X86033389Y-12814286D02*
X86414341Y-12814286D01*
X86414341Y-12814286D02*
X86509579Y-12861905D01*
X86509579Y-12861905D02*
X86557199Y-12909524D01*
X86557199Y-12909524D02*
X86604818Y-13004762D01*
X86604818Y-13004762D02*
X86604818Y-13195238D01*
X86604818Y-13195238D02*
X86557199Y-13290476D01*
X86557199Y-13290476D02*
X86509579Y-13338095D01*
X86509579Y-13338095D02*
X86414341Y-13385714D01*
X86414341Y-13385714D02*
X86176246Y-13385714D01*
X86176246Y-13385714D02*
X86081008Y-13338095D01*
X86081008Y-13338095D02*
X86033389Y-13290476D01*
X86033389Y-13290476D02*
X85985770Y-13195238D01*
X85985770Y-13195238D02*
X85985770Y-13004762D01*
X85985770Y-13004762D02*
X86033389Y-12909524D01*
X86033389Y-12909524D02*
X86081008Y-12861905D01*
X86081008Y-12861905D02*
X86176246Y-12814286D01*
X86033389Y-13957143D02*
X85985770Y-13861905D01*
X85985770Y-13861905D02*
X85938151Y-13814286D01*
X85938151Y-13814286D02*
X85842913Y-13766667D01*
X85842913Y-13766667D02*
X85795294Y-13766667D01*
X85795294Y-13766667D02*
X85700056Y-13814286D01*
X85700056Y-13814286D02*
X85652437Y-13861905D01*
X85652437Y-13861905D02*
X85604818Y-13957143D01*
X85604818Y-13957143D02*
X85604818Y-14147619D01*
X85604818Y-14147619D02*
X85652437Y-14242857D01*
X85652437Y-14242857D02*
X85700056Y-14290476D01*
X85700056Y-14290476D02*
X85795294Y-14338095D01*
X85795294Y-14338095D02*
X85842913Y-14338095D01*
X85842913Y-14338095D02*
X85938151Y-14290476D01*
X85938151Y-14290476D02*
X85985770Y-14242857D01*
X85985770Y-14242857D02*
X86033389Y-14147619D01*
X86033389Y-14147619D02*
X86033389Y-13957143D01*
X86033389Y-13957143D02*
X86081008Y-13861905D01*
X86081008Y-13861905D02*
X86128627Y-13814286D01*
X86128627Y-13814286D02*
X86223865Y-13766667D01*
X86223865Y-13766667D02*
X86414341Y-13766667D01*
X86414341Y-13766667D02*
X86509579Y-13814286D01*
X86509579Y-13814286D02*
X86557199Y-13861905D01*
X86557199Y-13861905D02*
X86604818Y-13957143D01*
X86604818Y-13957143D02*
X86604818Y-14147619D01*
X86604818Y-14147619D02*
X86557199Y-14242857D01*
X86557199Y-14242857D02*
X86509579Y-14290476D01*
X86509579Y-14290476D02*
X86414341Y-14338095D01*
X86414341Y-14338095D02*
X86223865Y-14338095D01*
X86223865Y-14338095D02*
X86128627Y-14290476D01*
X86128627Y-14290476D02*
X86081008Y-14242857D01*
X86081008Y-14242857D02*
X86033389Y-14147619D01*
X70054819Y-7580952D02*
X69578628Y-7247619D01*
X70054819Y-7009524D02*
X69054819Y-7009524D01*
X69054819Y-7009524D02*
X69054819Y-7390476D01*
X69054819Y-7390476D02*
X69102438Y-7485714D01*
X69102438Y-7485714D02*
X69150057Y-7533333D01*
X69150057Y-7533333D02*
X69245295Y-7580952D01*
X69245295Y-7580952D02*
X69388152Y-7580952D01*
X69388152Y-7580952D02*
X69483390Y-7533333D01*
X69483390Y-7533333D02*
X69531009Y-7485714D01*
X69531009Y-7485714D02*
X69578628Y-7390476D01*
X69578628Y-7390476D02*
X69578628Y-7009524D01*
X69150057Y-7961905D02*
X69102438Y-8009524D01*
X69102438Y-8009524D02*
X69054819Y-8104762D01*
X69054819Y-8104762D02*
X69054819Y-8342857D01*
X69054819Y-8342857D02*
X69102438Y-8438095D01*
X69102438Y-8438095D02*
X69150057Y-8485714D01*
X69150057Y-8485714D02*
X69245295Y-8533333D01*
X69245295Y-8533333D02*
X69340533Y-8533333D01*
X69340533Y-8533333D02*
X69483390Y-8485714D01*
X69483390Y-8485714D02*
X70054819Y-7914286D01*
X70054819Y-7914286D02*
X70054819Y-8533333D01*
X69054819Y-9152381D02*
X69054819Y-9247619D01*
X69054819Y-9247619D02*
X69102438Y-9342857D01*
X69102438Y-9342857D02*
X69150057Y-9390476D01*
X69150057Y-9390476D02*
X69245295Y-9438095D01*
X69245295Y-9438095D02*
X69435771Y-9485714D01*
X69435771Y-9485714D02*
X69673866Y-9485714D01*
X69673866Y-9485714D02*
X69864342Y-9438095D01*
X69864342Y-9438095D02*
X69959580Y-9390476D01*
X69959580Y-9390476D02*
X70007200Y-9342857D01*
X70007200Y-9342857D02*
X70054819Y-9247619D01*
X70054819Y-9247619D02*
X70054819Y-9152381D01*
X70054819Y-9152381D02*
X70007200Y-9057143D01*
X70007200Y-9057143D02*
X69959580Y-9009524D01*
X69959580Y-9009524D02*
X69864342Y-8961905D01*
X69864342Y-8961905D02*
X69673866Y-8914286D01*
X69673866Y-8914286D02*
X69435771Y-8914286D01*
X69435771Y-8914286D02*
X69245295Y-8961905D01*
X69245295Y-8961905D02*
X69150057Y-9009524D01*
X69150057Y-9009524D02*
X69102438Y-9057143D01*
X69102438Y-9057143D02*
X69054819Y-9152381D01*
X69388152Y-10342857D02*
X70054819Y-10342857D01*
X69007200Y-10104762D02*
X69721485Y-9866667D01*
X69721485Y-9866667D02*
X69721485Y-10485714D01*
X74419047Y-3759580D02*
X74466666Y-3807200D01*
X74466666Y-3807200D02*
X74609523Y-3854819D01*
X74609523Y-3854819D02*
X74704761Y-3854819D01*
X74704761Y-3854819D02*
X74847618Y-3807200D01*
X74847618Y-3807200D02*
X74942856Y-3711961D01*
X74942856Y-3711961D02*
X74990475Y-3616723D01*
X74990475Y-3616723D02*
X75038094Y-3426247D01*
X75038094Y-3426247D02*
X75038094Y-3283390D01*
X75038094Y-3283390D02*
X74990475Y-3092914D01*
X74990475Y-3092914D02*
X74942856Y-2997676D01*
X74942856Y-2997676D02*
X74847618Y-2902438D01*
X74847618Y-2902438D02*
X74704761Y-2854819D01*
X74704761Y-2854819D02*
X74609523Y-2854819D01*
X74609523Y-2854819D02*
X74466666Y-2902438D01*
X74466666Y-2902438D02*
X74419047Y-2950057D01*
X73466666Y-3854819D02*
X74038094Y-3854819D01*
X73752380Y-3854819D02*
X73752380Y-2854819D01*
X73752380Y-2854819D02*
X73847618Y-2997676D01*
X73847618Y-2997676D02*
X73942856Y-3092914D01*
X73942856Y-3092914D02*
X74038094Y-3140533D01*
X72609523Y-2854819D02*
X72799999Y-2854819D01*
X72799999Y-2854819D02*
X72895237Y-2902438D01*
X72895237Y-2902438D02*
X72942856Y-2950057D01*
X72942856Y-2950057D02*
X73038094Y-3092914D01*
X73038094Y-3092914D02*
X73085713Y-3283390D01*
X73085713Y-3283390D02*
X73085713Y-3664342D01*
X73085713Y-3664342D02*
X73038094Y-3759580D01*
X73038094Y-3759580D02*
X72990475Y-3807200D01*
X72990475Y-3807200D02*
X72895237Y-3854819D01*
X72895237Y-3854819D02*
X72704761Y-3854819D01*
X72704761Y-3854819D02*
X72609523Y-3807200D01*
X72609523Y-3807200D02*
X72561904Y-3759580D01*
X72561904Y-3759580D02*
X72514285Y-3664342D01*
X72514285Y-3664342D02*
X72514285Y-3426247D01*
X72514285Y-3426247D02*
X72561904Y-3331009D01*
X72561904Y-3331009D02*
X72609523Y-3283390D01*
X72609523Y-3283390D02*
X72704761Y-3235771D01*
X72704761Y-3235771D02*
X72895237Y-3235771D01*
X72895237Y-3235771D02*
X72990475Y-3283390D01*
X72990475Y-3283390D02*
X73038094Y-3331009D01*
X73038094Y-3331009D02*
X73085713Y-3426247D01*
X72180951Y-2854819D02*
X71514285Y-2854819D01*
X71514285Y-2854819D02*
X71942856Y-3854819D01*
X49819046Y-1659580D02*
X49866665Y-1707200D01*
X49866665Y-1707200D02*
X50009522Y-1754819D01*
X50009522Y-1754819D02*
X50104760Y-1754819D01*
X50104760Y-1754819D02*
X50247617Y-1707200D01*
X50247617Y-1707200D02*
X50342855Y-1611961D01*
X50342855Y-1611961D02*
X50390474Y-1516723D01*
X50390474Y-1516723D02*
X50438093Y-1326247D01*
X50438093Y-1326247D02*
X50438093Y-1183390D01*
X50438093Y-1183390D02*
X50390474Y-992914D01*
X50390474Y-992914D02*
X50342855Y-897676D01*
X50342855Y-897676D02*
X50247617Y-802438D01*
X50247617Y-802438D02*
X50104760Y-754819D01*
X50104760Y-754819D02*
X50009522Y-754819D01*
X50009522Y-754819D02*
X49866665Y-802438D01*
X49866665Y-802438D02*
X49819046Y-850057D01*
X48866665Y-1754819D02*
X49438093Y-1754819D01*
X49152379Y-1754819D02*
X49152379Y-754819D01*
X49152379Y-754819D02*
X49247617Y-897676D01*
X49247617Y-897676D02*
X49342855Y-992914D01*
X49342855Y-992914D02*
X49438093Y-1040533D01*
X47961903Y-754819D02*
X48438093Y-754819D01*
X48438093Y-754819D02*
X48485712Y-1231009D01*
X48485712Y-1231009D02*
X48438093Y-1183390D01*
X48438093Y-1183390D02*
X48342855Y-1135771D01*
X48342855Y-1135771D02*
X48104760Y-1135771D01*
X48104760Y-1135771D02*
X48009522Y-1183390D01*
X48009522Y-1183390D02*
X47961903Y-1231009D01*
X47961903Y-1231009D02*
X47914284Y-1326247D01*
X47914284Y-1326247D02*
X47914284Y-1564342D01*
X47914284Y-1564342D02*
X47961903Y-1659580D01*
X47961903Y-1659580D02*
X48009522Y-1707200D01*
X48009522Y-1707200D02*
X48104760Y-1754819D01*
X48104760Y-1754819D02*
X48342855Y-1754819D01*
X48342855Y-1754819D02*
X48438093Y-1707200D01*
X48438093Y-1707200D02*
X48485712Y-1659580D01*
X47438093Y-1754819D02*
X47247617Y-1754819D01*
X47247617Y-1754819D02*
X47152379Y-1707200D01*
X47152379Y-1707200D02*
X47104760Y-1659580D01*
X47104760Y-1659580D02*
X47009522Y-1516723D01*
X47009522Y-1516723D02*
X46961903Y-1326247D01*
X46961903Y-1326247D02*
X46961903Y-945295D01*
X46961903Y-945295D02*
X47009522Y-850057D01*
X47009522Y-850057D02*
X47057141Y-802438D01*
X47057141Y-802438D02*
X47152379Y-754819D01*
X47152379Y-754819D02*
X47342855Y-754819D01*
X47342855Y-754819D02*
X47438093Y-802438D01*
X47438093Y-802438D02*
X47485712Y-850057D01*
X47485712Y-850057D02*
X47533331Y-945295D01*
X47533331Y-945295D02*
X47533331Y-1183390D01*
X47533331Y-1183390D02*
X47485712Y-1278628D01*
X47485712Y-1278628D02*
X47438093Y-1326247D01*
X47438093Y-1326247D02*
X47342855Y-1373866D01*
X47342855Y-1373866D02*
X47152379Y-1373866D01*
X47152379Y-1373866D02*
X47057141Y-1326247D01*
X47057141Y-1326247D02*
X47009522Y-1278628D01*
X47009522Y-1278628D02*
X46961903Y-1183390D01*
X83519047Y-12954819D02*
X83852380Y-12478628D01*
X84090475Y-12954819D02*
X84090475Y-11954819D01*
X84090475Y-11954819D02*
X83709523Y-11954819D01*
X83709523Y-11954819D02*
X83614285Y-12002438D01*
X83614285Y-12002438D02*
X83566666Y-12050057D01*
X83566666Y-12050057D02*
X83519047Y-12145295D01*
X83519047Y-12145295D02*
X83519047Y-12288152D01*
X83519047Y-12288152D02*
X83566666Y-12383390D01*
X83566666Y-12383390D02*
X83614285Y-12431009D01*
X83614285Y-12431009D02*
X83709523Y-12478628D01*
X83709523Y-12478628D02*
X84090475Y-12478628D01*
X82566666Y-12954819D02*
X83138094Y-12954819D01*
X82852380Y-12954819D02*
X82852380Y-11954819D01*
X82852380Y-11954819D02*
X82947618Y-12097676D01*
X82947618Y-12097676D02*
X83042856Y-12192914D01*
X83042856Y-12192914D02*
X83138094Y-12240533D01*
X81709523Y-11954819D02*
X81899999Y-11954819D01*
X81899999Y-11954819D02*
X81995237Y-12002438D01*
X81995237Y-12002438D02*
X82042856Y-12050057D01*
X82042856Y-12050057D02*
X82138094Y-12192914D01*
X82138094Y-12192914D02*
X82185713Y-12383390D01*
X82185713Y-12383390D02*
X82185713Y-12764342D01*
X82185713Y-12764342D02*
X82138094Y-12859580D01*
X82138094Y-12859580D02*
X82090475Y-12907200D01*
X82090475Y-12907200D02*
X81995237Y-12954819D01*
X81995237Y-12954819D02*
X81804761Y-12954819D01*
X81804761Y-12954819D02*
X81709523Y-12907200D01*
X81709523Y-12907200D02*
X81661904Y-12859580D01*
X81661904Y-12859580D02*
X81614285Y-12764342D01*
X81614285Y-12764342D02*
X81614285Y-12526247D01*
X81614285Y-12526247D02*
X81661904Y-12431009D01*
X81661904Y-12431009D02*
X81709523Y-12383390D01*
X81709523Y-12383390D02*
X81804761Y-12335771D01*
X81804761Y-12335771D02*
X81995237Y-12335771D01*
X81995237Y-12335771D02*
X82090475Y-12383390D01*
X82090475Y-12383390D02*
X82138094Y-12431009D01*
X82138094Y-12431009D02*
X82185713Y-12526247D01*
X81138094Y-12954819D02*
X80947618Y-12954819D01*
X80947618Y-12954819D02*
X80852380Y-12907200D01*
X80852380Y-12907200D02*
X80804761Y-12859580D01*
X80804761Y-12859580D02*
X80709523Y-12716723D01*
X80709523Y-12716723D02*
X80661904Y-12526247D01*
X80661904Y-12526247D02*
X80661904Y-12145295D01*
X80661904Y-12145295D02*
X80709523Y-12050057D01*
X80709523Y-12050057D02*
X80757142Y-12002438D01*
X80757142Y-12002438D02*
X80852380Y-11954819D01*
X80852380Y-11954819D02*
X81042856Y-11954819D01*
X81042856Y-11954819D02*
X81138094Y-12002438D01*
X81138094Y-12002438D02*
X81185713Y-12050057D01*
X81185713Y-12050057D02*
X81233332Y-12145295D01*
X81233332Y-12145295D02*
X81233332Y-12383390D01*
X81233332Y-12383390D02*
X81185713Y-12478628D01*
X81185713Y-12478628D02*
X81138094Y-12526247D01*
X81138094Y-12526247D02*
X81042856Y-12573866D01*
X81042856Y-12573866D02*
X80852380Y-12573866D01*
X80852380Y-12573866D02*
X80757142Y-12526247D01*
X80757142Y-12526247D02*
X80709523Y-12478628D01*
X80709523Y-12478628D02*
X80661904Y-12383390D01*
X72019047Y-1654819D02*
X72352380Y-1178628D01*
X72590475Y-1654819D02*
X72590475Y-654819D01*
X72590475Y-654819D02*
X72209523Y-654819D01*
X72209523Y-654819D02*
X72114285Y-702438D01*
X72114285Y-702438D02*
X72066666Y-750057D01*
X72066666Y-750057D02*
X72019047Y-845295D01*
X72019047Y-845295D02*
X72019047Y-988152D01*
X72019047Y-988152D02*
X72066666Y-1083390D01*
X72066666Y-1083390D02*
X72114285Y-1131009D01*
X72114285Y-1131009D02*
X72209523Y-1178628D01*
X72209523Y-1178628D02*
X72590475Y-1178628D01*
X71066666Y-1654819D02*
X71638094Y-1654819D01*
X71352380Y-1654819D02*
X71352380Y-654819D01*
X71352380Y-654819D02*
X71447618Y-797676D01*
X71447618Y-797676D02*
X71542856Y-892914D01*
X71542856Y-892914D02*
X71638094Y-940533D01*
X70161904Y-654819D02*
X70638094Y-654819D01*
X70638094Y-654819D02*
X70685713Y-1131009D01*
X70685713Y-1131009D02*
X70638094Y-1083390D01*
X70638094Y-1083390D02*
X70542856Y-1035771D01*
X70542856Y-1035771D02*
X70304761Y-1035771D01*
X70304761Y-1035771D02*
X70209523Y-1083390D01*
X70209523Y-1083390D02*
X70161904Y-1131009D01*
X70161904Y-1131009D02*
X70114285Y-1226247D01*
X70114285Y-1226247D02*
X70114285Y-1464342D01*
X70114285Y-1464342D02*
X70161904Y-1559580D01*
X70161904Y-1559580D02*
X70209523Y-1607200D01*
X70209523Y-1607200D02*
X70304761Y-1654819D01*
X70304761Y-1654819D02*
X70542856Y-1654819D01*
X70542856Y-1654819D02*
X70638094Y-1607200D01*
X70638094Y-1607200D02*
X70685713Y-1559580D01*
X69542856Y-1083390D02*
X69638094Y-1035771D01*
X69638094Y-1035771D02*
X69685713Y-988152D01*
X69685713Y-988152D02*
X69733332Y-892914D01*
X69733332Y-892914D02*
X69733332Y-845295D01*
X69733332Y-845295D02*
X69685713Y-750057D01*
X69685713Y-750057D02*
X69638094Y-702438D01*
X69638094Y-702438D02*
X69542856Y-654819D01*
X69542856Y-654819D02*
X69352380Y-654819D01*
X69352380Y-654819D02*
X69257142Y-702438D01*
X69257142Y-702438D02*
X69209523Y-750057D01*
X69209523Y-750057D02*
X69161904Y-845295D01*
X69161904Y-845295D02*
X69161904Y-892914D01*
X69161904Y-892914D02*
X69209523Y-988152D01*
X69209523Y-988152D02*
X69257142Y-1035771D01*
X69257142Y-1035771D02*
X69352380Y-1083390D01*
X69352380Y-1083390D02*
X69542856Y-1083390D01*
X69542856Y-1083390D02*
X69638094Y-1131009D01*
X69638094Y-1131009D02*
X69685713Y-1178628D01*
X69685713Y-1178628D02*
X69733332Y-1273866D01*
X69733332Y-1273866D02*
X69733332Y-1464342D01*
X69733332Y-1464342D02*
X69685713Y-1559580D01*
X69685713Y-1559580D02*
X69638094Y-1607200D01*
X69638094Y-1607200D02*
X69542856Y-1654819D01*
X69542856Y-1654819D02*
X69352380Y-1654819D01*
X69352380Y-1654819D02*
X69257142Y-1607200D01*
X69257142Y-1607200D02*
X69209523Y-1559580D01*
X69209523Y-1559580D02*
X69161904Y-1464342D01*
X69161904Y-1464342D02*
X69161904Y-1273866D01*
X69161904Y-1273866D02*
X69209523Y-1178628D01*
X69209523Y-1178628D02*
X69257142Y-1131009D01*
X69257142Y-1131009D02*
X69352380Y-1083390D01*
X48519046Y-12654819D02*
X48852379Y-12178628D01*
X49090474Y-12654819D02*
X49090474Y-11654819D01*
X49090474Y-11654819D02*
X48709522Y-11654819D01*
X48709522Y-11654819D02*
X48614284Y-11702438D01*
X48614284Y-11702438D02*
X48566665Y-11750057D01*
X48566665Y-11750057D02*
X48519046Y-11845295D01*
X48519046Y-11845295D02*
X48519046Y-11988152D01*
X48519046Y-11988152D02*
X48566665Y-12083390D01*
X48566665Y-12083390D02*
X48614284Y-12131009D01*
X48614284Y-12131009D02*
X48709522Y-12178628D01*
X48709522Y-12178628D02*
X49090474Y-12178628D01*
X47566665Y-12654819D02*
X48138093Y-12654819D01*
X47852379Y-12654819D02*
X47852379Y-11654819D01*
X47852379Y-11654819D02*
X47947617Y-11797676D01*
X47947617Y-11797676D02*
X48042855Y-11892914D01*
X48042855Y-11892914D02*
X48138093Y-11940533D01*
X46661903Y-11654819D02*
X47138093Y-11654819D01*
X47138093Y-11654819D02*
X47185712Y-12131009D01*
X47185712Y-12131009D02*
X47138093Y-12083390D01*
X47138093Y-12083390D02*
X47042855Y-12035771D01*
X47042855Y-12035771D02*
X46804760Y-12035771D01*
X46804760Y-12035771D02*
X46709522Y-12083390D01*
X46709522Y-12083390D02*
X46661903Y-12131009D01*
X46661903Y-12131009D02*
X46614284Y-12226247D01*
X46614284Y-12226247D02*
X46614284Y-12464342D01*
X46614284Y-12464342D02*
X46661903Y-12559580D01*
X46661903Y-12559580D02*
X46709522Y-12607200D01*
X46709522Y-12607200D02*
X46804760Y-12654819D01*
X46804760Y-12654819D02*
X47042855Y-12654819D01*
X47042855Y-12654819D02*
X47138093Y-12607200D01*
X47138093Y-12607200D02*
X47185712Y-12559580D01*
X45709522Y-11654819D02*
X46185712Y-11654819D01*
X46185712Y-11654819D02*
X46233331Y-12131009D01*
X46233331Y-12131009D02*
X46185712Y-12083390D01*
X46185712Y-12083390D02*
X46090474Y-12035771D01*
X46090474Y-12035771D02*
X45852379Y-12035771D01*
X45852379Y-12035771D02*
X45757141Y-12083390D01*
X45757141Y-12083390D02*
X45709522Y-12131009D01*
X45709522Y-12131009D02*
X45661903Y-12226247D01*
X45661903Y-12226247D02*
X45661903Y-12464342D01*
X45661903Y-12464342D02*
X45709522Y-12559580D01*
X45709522Y-12559580D02*
X45757141Y-12607200D01*
X45757141Y-12607200D02*
X45852379Y-12654819D01*
X45852379Y-12654819D02*
X46090474Y-12654819D01*
X46090474Y-12654819D02*
X46185712Y-12607200D01*
X46185712Y-12607200D02*
X46233331Y-12559580D01*
X37854819Y-3980952D02*
X37378628Y-3647619D01*
X37854819Y-3409524D02*
X36854819Y-3409524D01*
X36854819Y-3409524D02*
X36854819Y-3790476D01*
X36854819Y-3790476D02*
X36902438Y-3885714D01*
X36902438Y-3885714D02*
X36950057Y-3933333D01*
X36950057Y-3933333D02*
X37045295Y-3980952D01*
X37045295Y-3980952D02*
X37188152Y-3980952D01*
X37188152Y-3980952D02*
X37283390Y-3933333D01*
X37283390Y-3933333D02*
X37331009Y-3885714D01*
X37331009Y-3885714D02*
X37378628Y-3790476D01*
X37378628Y-3790476D02*
X37378628Y-3409524D01*
X37854819Y-4933333D02*
X37854819Y-4361905D01*
X37854819Y-4647619D02*
X36854819Y-4647619D01*
X36854819Y-4647619D02*
X36997676Y-4552381D01*
X36997676Y-4552381D02*
X37092914Y-4457143D01*
X37092914Y-4457143D02*
X37140533Y-4361905D01*
X36854819Y-5838095D02*
X36854819Y-5361905D01*
X36854819Y-5361905D02*
X37331009Y-5314286D01*
X37331009Y-5314286D02*
X37283390Y-5361905D01*
X37283390Y-5361905D02*
X37235771Y-5457143D01*
X37235771Y-5457143D02*
X37235771Y-5695238D01*
X37235771Y-5695238D02*
X37283390Y-5790476D01*
X37283390Y-5790476D02*
X37331009Y-5838095D01*
X37331009Y-5838095D02*
X37426247Y-5885714D01*
X37426247Y-5885714D02*
X37664342Y-5885714D01*
X37664342Y-5885714D02*
X37759580Y-5838095D01*
X37759580Y-5838095D02*
X37807200Y-5790476D01*
X37807200Y-5790476D02*
X37854819Y-5695238D01*
X37854819Y-5695238D02*
X37854819Y-5457143D01*
X37854819Y-5457143D02*
X37807200Y-5361905D01*
X37807200Y-5361905D02*
X37759580Y-5314286D01*
X37854819Y-6838095D02*
X37854819Y-6266667D01*
X37854819Y-6552381D02*
X36854819Y-6552381D01*
X36854819Y-6552381D02*
X36997676Y-6457143D01*
X36997676Y-6457143D02*
X37092914Y-6361905D01*
X37092914Y-6361905D02*
X37140533Y-6266667D01*
X76169047Y-1759580D02*
X76216666Y-1807200D01*
X76216666Y-1807200D02*
X76359523Y-1854819D01*
X76359523Y-1854819D02*
X76454761Y-1854819D01*
X76454761Y-1854819D02*
X76597618Y-1807200D01*
X76597618Y-1807200D02*
X76692856Y-1711961D01*
X76692856Y-1711961D02*
X76740475Y-1616723D01*
X76740475Y-1616723D02*
X76788094Y-1426247D01*
X76788094Y-1426247D02*
X76788094Y-1283390D01*
X76788094Y-1283390D02*
X76740475Y-1092914D01*
X76740475Y-1092914D02*
X76692856Y-997676D01*
X76692856Y-997676D02*
X76597618Y-902438D01*
X76597618Y-902438D02*
X76454761Y-854819D01*
X76454761Y-854819D02*
X76359523Y-854819D01*
X76359523Y-854819D02*
X76216666Y-902438D01*
X76216666Y-902438D02*
X76169047Y-950057D01*
X75216666Y-1854819D02*
X75788094Y-1854819D01*
X75502380Y-1854819D02*
X75502380Y-854819D01*
X75502380Y-854819D02*
X75597618Y-997676D01*
X75597618Y-997676D02*
X75692856Y-1092914D01*
X75692856Y-1092914D02*
X75788094Y-1140533D01*
X74359523Y-854819D02*
X74549999Y-854819D01*
X74549999Y-854819D02*
X74645237Y-902438D01*
X74645237Y-902438D02*
X74692856Y-950057D01*
X74692856Y-950057D02*
X74788094Y-1092914D01*
X74788094Y-1092914D02*
X74835713Y-1283390D01*
X74835713Y-1283390D02*
X74835713Y-1664342D01*
X74835713Y-1664342D02*
X74788094Y-1759580D01*
X74788094Y-1759580D02*
X74740475Y-1807200D01*
X74740475Y-1807200D02*
X74645237Y-1854819D01*
X74645237Y-1854819D02*
X74454761Y-1854819D01*
X74454761Y-1854819D02*
X74359523Y-1807200D01*
X74359523Y-1807200D02*
X74311904Y-1759580D01*
X74311904Y-1759580D02*
X74264285Y-1664342D01*
X74264285Y-1664342D02*
X74264285Y-1426247D01*
X74264285Y-1426247D02*
X74311904Y-1331009D01*
X74311904Y-1331009D02*
X74359523Y-1283390D01*
X74359523Y-1283390D02*
X74454761Y-1235771D01*
X74454761Y-1235771D02*
X74645237Y-1235771D01*
X74645237Y-1235771D02*
X74740475Y-1283390D01*
X74740475Y-1283390D02*
X74788094Y-1331009D01*
X74788094Y-1331009D02*
X74835713Y-1426247D01*
X73407142Y-854819D02*
X73597618Y-854819D01*
X73597618Y-854819D02*
X73692856Y-902438D01*
X73692856Y-902438D02*
X73740475Y-950057D01*
X73740475Y-950057D02*
X73835713Y-1092914D01*
X73835713Y-1092914D02*
X73883332Y-1283390D01*
X73883332Y-1283390D02*
X73883332Y-1664342D01*
X73883332Y-1664342D02*
X73835713Y-1759580D01*
X73835713Y-1759580D02*
X73788094Y-1807200D01*
X73788094Y-1807200D02*
X73692856Y-1854819D01*
X73692856Y-1854819D02*
X73502380Y-1854819D01*
X73502380Y-1854819D02*
X73407142Y-1807200D01*
X73407142Y-1807200D02*
X73359523Y-1759580D01*
X73359523Y-1759580D02*
X73311904Y-1664342D01*
X73311904Y-1664342D02*
X73311904Y-1426247D01*
X73311904Y-1426247D02*
X73359523Y-1331009D01*
X73359523Y-1331009D02*
X73407142Y-1283390D01*
X73407142Y-1283390D02*
X73502380Y-1235771D01*
X73502380Y-1235771D02*
X73692856Y-1235771D01*
X73692856Y-1235771D02*
X73788094Y-1283390D01*
X73788094Y-1283390D02*
X73835713Y-1331009D01*
X73835713Y-1331009D02*
X73883332Y-1426247D01*
X49104819Y-7181952D02*
X48628628Y-6848619D01*
X49104819Y-6610524D02*
X48104819Y-6610524D01*
X48104819Y-6610524D02*
X48104819Y-6991476D01*
X48104819Y-6991476D02*
X48152438Y-7086714D01*
X48152438Y-7086714D02*
X48200057Y-7134333D01*
X48200057Y-7134333D02*
X48295295Y-7181952D01*
X48295295Y-7181952D02*
X48438152Y-7181952D01*
X48438152Y-7181952D02*
X48533390Y-7134333D01*
X48533390Y-7134333D02*
X48581009Y-7086714D01*
X48581009Y-7086714D02*
X48628628Y-6991476D01*
X48628628Y-6991476D02*
X48628628Y-6610524D01*
X49104819Y-8134333D02*
X49104819Y-7562905D01*
X49104819Y-7848619D02*
X48104819Y-7848619D01*
X48104819Y-7848619D02*
X48247676Y-7753381D01*
X48247676Y-7753381D02*
X48342914Y-7658143D01*
X48342914Y-7658143D02*
X48390533Y-7562905D01*
X48104819Y-9039095D02*
X48104819Y-8562905D01*
X48104819Y-8562905D02*
X48581009Y-8515286D01*
X48581009Y-8515286D02*
X48533390Y-8562905D01*
X48533390Y-8562905D02*
X48485771Y-8658143D01*
X48485771Y-8658143D02*
X48485771Y-8896238D01*
X48485771Y-8896238D02*
X48533390Y-8991476D01*
X48533390Y-8991476D02*
X48581009Y-9039095D01*
X48581009Y-9039095D02*
X48676247Y-9086714D01*
X48676247Y-9086714D02*
X48914342Y-9086714D01*
X48914342Y-9086714D02*
X49009580Y-9039095D01*
X49009580Y-9039095D02*
X49057200Y-8991476D01*
X49057200Y-8991476D02*
X49104819Y-8896238D01*
X49104819Y-8896238D02*
X49104819Y-8658143D01*
X49104819Y-8658143D02*
X49057200Y-8562905D01*
X49057200Y-8562905D02*
X49009580Y-8515286D01*
X48104819Y-9943857D02*
X48104819Y-9753381D01*
X48104819Y-9753381D02*
X48152438Y-9658143D01*
X48152438Y-9658143D02*
X48200057Y-9610524D01*
X48200057Y-9610524D02*
X48342914Y-9515286D01*
X48342914Y-9515286D02*
X48533390Y-9467667D01*
X48533390Y-9467667D02*
X48914342Y-9467667D01*
X48914342Y-9467667D02*
X49009580Y-9515286D01*
X49009580Y-9515286D02*
X49057200Y-9562905D01*
X49057200Y-9562905D02*
X49104819Y-9658143D01*
X49104819Y-9658143D02*
X49104819Y-9848619D01*
X49104819Y-9848619D02*
X49057200Y-9943857D01*
X49057200Y-9943857D02*
X49009580Y-9991476D01*
X49009580Y-9991476D02*
X48914342Y-10039095D01*
X48914342Y-10039095D02*
X48676247Y-10039095D01*
X48676247Y-10039095D02*
X48581009Y-9991476D01*
X48581009Y-9991476D02*
X48533390Y-9943857D01*
X48533390Y-9943857D02*
X48485771Y-9848619D01*
X48485771Y-9848619D02*
X48485771Y-9658143D01*
X48485771Y-9658143D02*
X48533390Y-9562905D01*
X48533390Y-9562905D02*
X48581009Y-9515286D01*
X48581009Y-9515286D02*
X48676247Y-9467667D01*
X74519047Y-12154819D02*
X74852380Y-11678628D01*
X75090475Y-12154819D02*
X75090475Y-11154819D01*
X75090475Y-11154819D02*
X74709523Y-11154819D01*
X74709523Y-11154819D02*
X74614285Y-11202438D01*
X74614285Y-11202438D02*
X74566666Y-11250057D01*
X74566666Y-11250057D02*
X74519047Y-11345295D01*
X74519047Y-11345295D02*
X74519047Y-11488152D01*
X74519047Y-11488152D02*
X74566666Y-11583390D01*
X74566666Y-11583390D02*
X74614285Y-11631009D01*
X74614285Y-11631009D02*
X74709523Y-11678628D01*
X74709523Y-11678628D02*
X75090475Y-11678628D01*
X73566666Y-12154819D02*
X74138094Y-12154819D01*
X73852380Y-12154819D02*
X73852380Y-11154819D01*
X73852380Y-11154819D02*
X73947618Y-11297676D01*
X73947618Y-11297676D02*
X74042856Y-11392914D01*
X74042856Y-11392914D02*
X74138094Y-11440533D01*
X73233332Y-11154819D02*
X72566666Y-11154819D01*
X72566666Y-11154819D02*
X72995237Y-12154819D01*
X71995237Y-11154819D02*
X71899999Y-11154819D01*
X71899999Y-11154819D02*
X71804761Y-11202438D01*
X71804761Y-11202438D02*
X71757142Y-11250057D01*
X71757142Y-11250057D02*
X71709523Y-11345295D01*
X71709523Y-11345295D02*
X71661904Y-11535771D01*
X71661904Y-11535771D02*
X71661904Y-11773866D01*
X71661904Y-11773866D02*
X71709523Y-11964342D01*
X71709523Y-11964342D02*
X71757142Y-12059580D01*
X71757142Y-12059580D02*
X71804761Y-12107200D01*
X71804761Y-12107200D02*
X71899999Y-12154819D01*
X71899999Y-12154819D02*
X71995237Y-12154819D01*
X71995237Y-12154819D02*
X72090475Y-12107200D01*
X72090475Y-12107200D02*
X72138094Y-12059580D01*
X72138094Y-12059580D02*
X72185713Y-11964342D01*
X72185713Y-11964342D02*
X72233332Y-11773866D01*
X72233332Y-11773866D02*
X72233332Y-11535771D01*
X72233332Y-11535771D02*
X72185713Y-11345295D01*
X72185713Y-11345295D02*
X72138094Y-11250057D01*
X72138094Y-11250057D02*
X72090475Y-11202438D01*
X72090475Y-11202438D02*
X71995237Y-11154819D01*
X46959580Y-7980952D02*
X47007200Y-7933333D01*
X47007200Y-7933333D02*
X47054819Y-7790476D01*
X47054819Y-7790476D02*
X47054819Y-7695238D01*
X47054819Y-7695238D02*
X47007200Y-7552381D01*
X47007200Y-7552381D02*
X46911961Y-7457143D01*
X46911961Y-7457143D02*
X46816723Y-7409524D01*
X46816723Y-7409524D02*
X46626247Y-7361905D01*
X46626247Y-7361905D02*
X46483390Y-7361905D01*
X46483390Y-7361905D02*
X46292914Y-7409524D01*
X46292914Y-7409524D02*
X46197676Y-7457143D01*
X46197676Y-7457143D02*
X46102438Y-7552381D01*
X46102438Y-7552381D02*
X46054819Y-7695238D01*
X46054819Y-7695238D02*
X46054819Y-7790476D01*
X46054819Y-7790476D02*
X46102438Y-7933333D01*
X46102438Y-7933333D02*
X46150057Y-7980952D01*
X47054819Y-8933333D02*
X47054819Y-8361905D01*
X47054819Y-8647619D02*
X46054819Y-8647619D01*
X46054819Y-8647619D02*
X46197676Y-8552381D01*
X46197676Y-8552381D02*
X46292914Y-8457143D01*
X46292914Y-8457143D02*
X46340533Y-8361905D01*
X46054819Y-9790476D02*
X46054819Y-9600000D01*
X46054819Y-9600000D02*
X46102438Y-9504762D01*
X46102438Y-9504762D02*
X46150057Y-9457143D01*
X46150057Y-9457143D02*
X46292914Y-9361905D01*
X46292914Y-9361905D02*
X46483390Y-9314286D01*
X46483390Y-9314286D02*
X46864342Y-9314286D01*
X46864342Y-9314286D02*
X46959580Y-9361905D01*
X46959580Y-9361905D02*
X47007200Y-9409524D01*
X47007200Y-9409524D02*
X47054819Y-9504762D01*
X47054819Y-9504762D02*
X47054819Y-9695238D01*
X47054819Y-9695238D02*
X47007200Y-9790476D01*
X47007200Y-9790476D02*
X46959580Y-9838095D01*
X46959580Y-9838095D02*
X46864342Y-9885714D01*
X46864342Y-9885714D02*
X46626247Y-9885714D01*
X46626247Y-9885714D02*
X46531009Y-9838095D01*
X46531009Y-9838095D02*
X46483390Y-9790476D01*
X46483390Y-9790476D02*
X46435771Y-9695238D01*
X46435771Y-9695238D02*
X46435771Y-9504762D01*
X46435771Y-9504762D02*
X46483390Y-9409524D01*
X46483390Y-9409524D02*
X46531009Y-9361905D01*
X46531009Y-9361905D02*
X46626247Y-9314286D01*
X47054819Y-10838095D02*
X47054819Y-10266667D01*
X47054819Y-10552381D02*
X46054819Y-10552381D01*
X46054819Y-10552381D02*
X46197676Y-10457143D01*
X46197676Y-10457143D02*
X46292914Y-10361905D01*
X46292914Y-10361905D02*
X46340533Y-10266667D01*
X46254819Y-3085714D02*
X47064342Y-3085714D01*
X47064342Y-3085714D02*
X47159580Y-3133333D01*
X47159580Y-3133333D02*
X47207200Y-3180952D01*
X47207200Y-3180952D02*
X47254819Y-3276190D01*
X47254819Y-3276190D02*
X47254819Y-3466666D01*
X47254819Y-3466666D02*
X47207200Y-3561904D01*
X47207200Y-3561904D02*
X47159580Y-3609523D01*
X47159580Y-3609523D02*
X47064342Y-3657142D01*
X47064342Y-3657142D02*
X46254819Y-3657142D01*
X47254819Y-4657142D02*
X47254819Y-4085714D01*
X47254819Y-4371428D02*
X46254819Y-4371428D01*
X46254819Y-4371428D02*
X46397676Y-4276190D01*
X46397676Y-4276190D02*
X46492914Y-4180952D01*
X46492914Y-4180952D02*
X46540533Y-4085714D01*
X46254819Y-5561904D02*
X46254819Y-5085714D01*
X46254819Y-5085714D02*
X46731009Y-5038095D01*
X46731009Y-5038095D02*
X46683390Y-5085714D01*
X46683390Y-5085714D02*
X46635771Y-5180952D01*
X46635771Y-5180952D02*
X46635771Y-5419047D01*
X46635771Y-5419047D02*
X46683390Y-5514285D01*
X46683390Y-5514285D02*
X46731009Y-5561904D01*
X46731009Y-5561904D02*
X46826247Y-5609523D01*
X46826247Y-5609523D02*
X47064342Y-5609523D01*
X47064342Y-5609523D02*
X47159580Y-5561904D01*
X47159580Y-5561904D02*
X47207200Y-5514285D01*
X47207200Y-5514285D02*
X47254819Y-5419047D01*
X47254819Y-5419047D02*
X47254819Y-5180952D01*
X47254819Y-5180952D02*
X47207200Y-5085714D01*
X47207200Y-5085714D02*
X47159580Y-5038095D01*
X46350057Y-5990476D02*
X46302438Y-6038095D01*
X46302438Y-6038095D02*
X46254819Y-6133333D01*
X46254819Y-6133333D02*
X46254819Y-6371428D01*
X46254819Y-6371428D02*
X46302438Y-6466666D01*
X46302438Y-6466666D02*
X46350057Y-6514285D01*
X46350057Y-6514285D02*
X46445295Y-6561904D01*
X46445295Y-6561904D02*
X46540533Y-6561904D01*
X46540533Y-6561904D02*
X46683390Y-6514285D01*
X46683390Y-6514285D02*
X47254819Y-5942857D01*
X47254819Y-5942857D02*
X47254819Y-6561904D01*
X70614284Y-2554819D02*
X70614284Y-3364342D01*
X70614284Y-3364342D02*
X70566665Y-3459580D01*
X70566665Y-3459580D02*
X70519046Y-3507200D01*
X70519046Y-3507200D02*
X70423808Y-3554819D01*
X70423808Y-3554819D02*
X70233332Y-3554819D01*
X70233332Y-3554819D02*
X70138094Y-3507200D01*
X70138094Y-3507200D02*
X70090475Y-3459580D01*
X70090475Y-3459580D02*
X70042856Y-3364342D01*
X70042856Y-3364342D02*
X70042856Y-2554819D01*
X69042856Y-3554819D02*
X69614284Y-3554819D01*
X69328570Y-3554819D02*
X69328570Y-2554819D01*
X69328570Y-2554819D02*
X69423808Y-2697676D01*
X69423808Y-2697676D02*
X69519046Y-2792914D01*
X69519046Y-2792914D02*
X69614284Y-2840533D01*
X68138094Y-2554819D02*
X68614284Y-2554819D01*
X68614284Y-2554819D02*
X68661903Y-3031009D01*
X68661903Y-3031009D02*
X68614284Y-2983390D01*
X68614284Y-2983390D02*
X68519046Y-2935771D01*
X68519046Y-2935771D02*
X68280951Y-2935771D01*
X68280951Y-2935771D02*
X68185713Y-2983390D01*
X68185713Y-2983390D02*
X68138094Y-3031009D01*
X68138094Y-3031009D02*
X68090475Y-3126247D01*
X68090475Y-3126247D02*
X68090475Y-3364342D01*
X68090475Y-3364342D02*
X68138094Y-3459580D01*
X68138094Y-3459580D02*
X68185713Y-3507200D01*
X68185713Y-3507200D02*
X68280951Y-3554819D01*
X68280951Y-3554819D02*
X68519046Y-3554819D01*
X68519046Y-3554819D02*
X68614284Y-3507200D01*
X68614284Y-3507200D02*
X68661903Y-3459580D01*
X67757141Y-2554819D02*
X67138094Y-2554819D01*
X67138094Y-2554819D02*
X67471427Y-2935771D01*
X67471427Y-2935771D02*
X67328570Y-2935771D01*
X67328570Y-2935771D02*
X67233332Y-2983390D01*
X67233332Y-2983390D02*
X67185713Y-3031009D01*
X67185713Y-3031009D02*
X67138094Y-3126247D01*
X67138094Y-3126247D02*
X67138094Y-3364342D01*
X67138094Y-3364342D02*
X67185713Y-3459580D01*
X67185713Y-3459580D02*
X67233332Y-3507200D01*
X67233332Y-3507200D02*
X67328570Y-3554819D01*
X67328570Y-3554819D02*
X67614284Y-3554819D01*
X67614284Y-3554819D02*
X67709522Y-3507200D01*
X67709522Y-3507200D02*
X67757141Y-3459580D01*
%TO.C,TP505*%
X69350000Y-34500000D02*
G75*
G02*
X67450000Y-34500000I-950000J0D01*
G01*
X67450000Y-34500000D02*
G75*
G02*
X69350000Y-34500000I950000J0D01*
G01*
%TO.C,R511*%
X82372936Y-37865000D02*
X82827064Y-37865000D01*
X82372936Y-39335000D02*
X82827064Y-39335000D01*
%TO.C,TP504*%
X69950000Y-39200000D02*
G75*
G02*
X68050000Y-39200000I-950000J0D01*
G01*
X68050000Y-39200000D02*
G75*
G02*
X69950000Y-39200000I950000J0D01*
G01*
%TO.C,C511*%
X79140580Y-34990000D02*
X78859420Y-34990000D01*
X79140580Y-36010000D02*
X78859420Y-36010000D01*
%TO.C,L151*%
X22700000Y-13400000D02*
X22700000Y-13890000D01*
X22700000Y-19600000D02*
X22700000Y-19110000D01*
X28700000Y-13400000D02*
X22700000Y-13400000D01*
X28700000Y-13400000D02*
X28700000Y-13890000D01*
X28700000Y-19600000D02*
X22700000Y-19600000D01*
X28700000Y-19600000D02*
X28700000Y-19110000D01*
%TO.C,R408*%
X64562742Y-17477500D02*
X65037258Y-17477500D01*
X64562742Y-18522500D02*
X65037258Y-18522500D01*
%TO.C,C102*%
X37159420Y-33690000D02*
X37440580Y-33690000D01*
X37159420Y-34710000D02*
X37440580Y-34710000D01*
%TO.C,TP506*%
X87550000Y-23400000D02*
G75*
G02*
X85650000Y-23400000I-950000J0D01*
G01*
X85650000Y-23400000D02*
G75*
G02*
X87550000Y-23400000I950000J0D01*
G01*
%TO.C,C122*%
X40240000Y-25911252D02*
X40240000Y-24488748D01*
X42960000Y-25911252D02*
X42960000Y-24488748D01*
%TO.C,R104*%
X27562742Y-29077500D02*
X28037258Y-29077500D01*
X27562742Y-30122500D02*
X28037258Y-30122500D01*
%TO.C,C158*%
X37859420Y-17490000D02*
X38140580Y-17490000D01*
X37859420Y-18510000D02*
X38140580Y-18510000D01*
%TO.C,TP302*%
X6950000Y-14000000D02*
G75*
G02*
X5050000Y-14000000I-950000J0D01*
G01*
X5050000Y-14000000D02*
G75*
G02*
X6950000Y-14000000I950000J0D01*
G01*
%TO.C,D501*%
X14200000Y-18940000D02*
X13550000Y-18940000D01*
X14200000Y-18940000D02*
X14850000Y-18940000D01*
X14200000Y-22060000D02*
X13550000Y-22060000D01*
X14200000Y-22060000D02*
X14850000Y-22060000D01*
X13277500Y-22340000D02*
X12797500Y-22340000D01*
X13037500Y-22010000D01*
X13277500Y-22340000D01*
G36*
X13277500Y-22340000D02*
G01*
X12797500Y-22340000D01*
X13037500Y-22010000D01*
X13277500Y-22340000D01*
G37*
%TO.C,TP501*%
X87450000Y-39000000D02*
G75*
G02*
X85550000Y-39000000I-950000J0D01*
G01*
X85550000Y-39000000D02*
G75*
G02*
X87450000Y-39000000I950000J0D01*
G01*
%TO.C,C301*%
X23759420Y-9690000D02*
X24040580Y-9690000D01*
X23759420Y-10710000D02*
X24040580Y-10710000D01*
%TO.C,D402*%
X63120000Y-11580000D02*
X63120000Y-11850000D01*
X63120000Y-11580000D02*
X63650000Y-11580000D01*
%TO.C,R525*%
X84862742Y-25277500D02*
X85337258Y-25277500D01*
X84862742Y-26322500D02*
X85337258Y-26322500D01*
%TO.C,TP211*%
X78950000Y-7000000D02*
G75*
G02*
X77050000Y-7000000I-950000J0D01*
G01*
X77050000Y-7000000D02*
G75*
G02*
X78950000Y-7000000I950000J0D01*
G01*
%TO.C,TP213*%
X84950000Y-7000000D02*
G75*
G02*
X83050000Y-7000000I-950000J0D01*
G01*
X83050000Y-7000000D02*
G75*
G02*
X84950000Y-7000000I950000J0D01*
G01*
%TO.C,SJ301*%
X17800000Y-2800000D02*
X17800000Y-4800000D01*
X17800000Y-4800000D02*
X20600000Y-4800000D01*
X20600000Y-2800000D02*
X17800000Y-2800000D01*
X20600000Y-4800000D02*
X20600000Y-2800000D01*
%TO.C,C151*%
X41840000Y-14588748D02*
X41840000Y-16011252D01*
X44560000Y-14588748D02*
X44560000Y-16011252D01*
%TO.C,R515*%
X86012742Y-27377500D02*
X86487258Y-27377500D01*
X86012742Y-28422500D02*
X86487258Y-28422500D01*
%TO.C,TP303*%
X27750000Y-2400000D02*
G75*
G02*
X25850000Y-2400000I-950000J0D01*
G01*
X25850000Y-2400000D02*
G75*
G02*
X27750000Y-2400000I950000J0D01*
G01*
%TO.C,R154*%
X43762742Y-18477500D02*
X44237258Y-18477500D01*
X43762742Y-19522500D02*
X44237258Y-19522500D01*
%TO.C,R513*%
X84127064Y-31265000D02*
X83672936Y-31265000D01*
X84127064Y-32735000D02*
X83672936Y-32735000D01*
%TO.C,R504*%
X16762742Y-32477500D02*
X17237258Y-32477500D01*
X16762742Y-33522500D02*
X17237258Y-33522500D01*
%TO.C,C101*%
X32238748Y-33765000D02*
X32761252Y-33765000D01*
X32238748Y-35235000D02*
X32761252Y-35235000D01*
%TO.C,TP151*%
X30950000Y-6700000D02*
G75*
G02*
X29050000Y-6700000I-950000J0D01*
G01*
X29050000Y-6700000D02*
G75*
G02*
X30950000Y-6700000I950000J0D01*
G01*
%TO.C,TP509*%
X19450000Y-35500000D02*
G75*
G02*
X17550000Y-35500000I-950000J0D01*
G01*
X17550000Y-35500000D02*
G75*
G02*
X19450000Y-35500000I950000J0D01*
G01*
%TO.C,R102*%
X27772936Y-24190000D02*
X29227064Y-24190000D01*
X27772936Y-26010000D02*
X29227064Y-26010000D01*
%TO.C,R153*%
X40272936Y-20090000D02*
X41727064Y-20090000D01*
X40272936Y-21910000D02*
X41727064Y-21910000D01*
%TO.C,C501*%
X21859420Y-33290000D02*
X22140580Y-33290000D01*
X21859420Y-34310000D02*
X22140580Y-34310000D01*
%TO.C,C302*%
X17059420Y-13190000D02*
X17340580Y-13190000D01*
X17059420Y-14210000D02*
X17340580Y-14210000D01*
%TO.C,C155*%
X25288748Y-20640000D02*
X26711252Y-20640000D01*
X25288748Y-23360000D02*
X26711252Y-23360000D01*
%TO.C,C512*%
X79140580Y-36990000D02*
X78859420Y-36990000D01*
X79140580Y-38010000D02*
X78859420Y-38010000D01*
%TO.C,C522*%
X71640580Y-36990000D02*
X71359420Y-36990000D01*
X71640580Y-38010000D02*
X71359420Y-38010000D01*
%TO.C,R505*%
X21772936Y-30965000D02*
X22227064Y-30965000D01*
X21772936Y-32435000D02*
X22227064Y-32435000D01*
%TO.C,TP304*%
X29950000Y-9900000D02*
G75*
G02*
X28050000Y-9900000I-950000J0D01*
G01*
X28050000Y-9900000D02*
G75*
G02*
X29950000Y-9900000I950000J0D01*
G01*
%TO.C,R106*%
X38237258Y-28477500D02*
X37762742Y-28477500D01*
X38237258Y-29522500D02*
X37762742Y-29522500D01*
%TO.C,C502*%
X12840580Y-27090000D02*
X12559420Y-27090000D01*
X12840580Y-28110000D02*
X12559420Y-28110000D01*
%TO.C,R105*%
X35072936Y-25790000D02*
X36527064Y-25790000D01*
X35072936Y-27610000D02*
X36527064Y-27610000D01*
%TO.C,U301*%
X21900000Y-7860000D02*
X18900000Y-7860000D01*
X21900000Y-11140000D02*
X18900000Y-11140000D01*
D11*
X21887500Y-7540000D02*
G75*
G02*
X21712500Y-7540000I-87500J0D01*
G01*
X21712500Y-7540000D02*
G75*
G02*
X21887500Y-7540000I87500J0D01*
G01*
D10*
%TO.C,C524*%
X72990000Y-30709420D02*
X72990000Y-30990580D01*
X74010000Y-30709420D02*
X74010000Y-30990580D01*
%TO.C,R301*%
X26237258Y-7477500D02*
X25762742Y-7477500D01*
X26237258Y-8522500D02*
X25762742Y-8522500D01*
%TO.C,R103*%
X27562742Y-26977500D02*
X28037258Y-26977500D01*
X27562742Y-28022500D02*
X28037258Y-28022500D01*
%TO.C,D301*%
X14600000Y-7940000D02*
X13950000Y-7940000D01*
X14600000Y-7940000D02*
X15250000Y-7940000D01*
X14600000Y-11060000D02*
X13950000Y-11060000D01*
X14600000Y-11060000D02*
X15250000Y-11060000D01*
X15762500Y-7990000D02*
X15522500Y-7660000D01*
X16002500Y-7660000D01*
X15762500Y-7990000D01*
G36*
X15762500Y-7990000D02*
G01*
X15522500Y-7660000D01*
X16002500Y-7660000D01*
X15762500Y-7990000D01*
G37*
%TO.C,R101*%
X23822936Y-35290000D02*
X28177064Y-35290000D01*
X23822936Y-38710000D02*
X28177064Y-38710000D01*
%TO.C,TP507*%
X14750000Y-36000000D02*
G75*
G02*
X12850000Y-36000000I-950000J0D01*
G01*
X12850000Y-36000000D02*
G75*
G02*
X14750000Y-36000000I950000J0D01*
G01*
%TO.C,R521*%
X74772936Y-38565000D02*
X75227064Y-38565000D01*
X74772936Y-40035000D02*
X75227064Y-40035000D01*
%TO.C,TP153*%
X34950000Y-4000000D02*
G75*
G02*
X33050000Y-4000000I-950000J0D01*
G01*
X33050000Y-4000000D02*
G75*
G02*
X34950000Y-4000000I950000J0D01*
G01*
%TO.C,TP152*%
X30950000Y-4000000D02*
G75*
G02*
X29050000Y-4000000I-950000J0D01*
G01*
X29050000Y-4000000D02*
G75*
G02*
X30950000Y-4000000I950000J0D01*
G01*
%TO.C,R306*%
X14072936Y-2890000D02*
X15527064Y-2890000D01*
X14072936Y-4710000D02*
X15527064Y-4710000D01*
%TO.C,TP502*%
X87450000Y-36000000D02*
G75*
G02*
X85550000Y-36000000I-950000J0D01*
G01*
X85550000Y-36000000D02*
G75*
G02*
X87450000Y-36000000I950000J0D01*
G01*
%TO.C,C503*%
X22438748Y-28765000D02*
X22961252Y-28765000D01*
X22438748Y-30235000D02*
X22961252Y-30235000D01*
%TO.C,R411*%
X60377500Y-20637258D02*
X60377500Y-20162742D01*
X61422500Y-20637258D02*
X61422500Y-20162742D01*
%TO.C,TP104*%
X40950000Y-39500000D02*
G75*
G02*
X39050000Y-39500000I-950000J0D01*
G01*
X39050000Y-39500000D02*
G75*
G02*
X40950000Y-39500000I950000J0D01*
G01*
%TO.C,R506*%
X18262742Y-37477500D02*
X18737258Y-37477500D01*
X18262742Y-38522500D02*
X18737258Y-38522500D01*
%TO.C,R522*%
X74762742Y-35977500D02*
X75237258Y-35977500D01*
X74762742Y-37022500D02*
X75237258Y-37022500D01*
%TO.C,U502*%
X78500000Y-27940000D02*
X76550000Y-27940000D01*
X78500000Y-27940000D02*
X80450000Y-27940000D01*
X78500000Y-33060000D02*
X76550000Y-33060000D01*
X78500000Y-33060000D02*
X80450000Y-33060000D01*
X81200000Y-28035000D02*
X80960000Y-27705000D01*
X81440000Y-27705000D01*
X81200000Y-28035000D01*
G36*
X81200000Y-28035000D02*
G01*
X80960000Y-27705000D01*
X81440000Y-27705000D01*
X81200000Y-28035000D01*
G37*
%TO.C,C153*%
X29440580Y-11490000D02*
X29159420Y-11490000D01*
X29440580Y-12510000D02*
X29159420Y-12510000D01*
%TO.C,R152*%
X33262742Y-17477500D02*
X33737258Y-17477500D01*
X33262742Y-18522500D02*
X33737258Y-18522500D01*
%TO.C,R409*%
X43762742Y-7477500D02*
X44237258Y-7477500D01*
X43762742Y-8522500D02*
X44237258Y-8522500D01*
%TO.C,U501*%
X15800000Y-28675000D02*
G75*
G02*
X15400000Y-28675000I-200000J0D01*
G01*
X15400000Y-28675000D02*
G75*
G02*
X15800000Y-28675000I200000J0D01*
G01*
%TO.C,C129*%
X41840000Y-31211252D02*
X41840000Y-29788748D01*
X44560000Y-31211252D02*
X44560000Y-29788748D01*
%TO.C,R410*%
X63077500Y-20162742D02*
X63077500Y-20637258D01*
X64122500Y-20162742D02*
X64122500Y-20637258D01*
%TO.C,R107*%
X37762742Y-30977500D02*
X38237258Y-30977500D01*
X37762742Y-32022500D02*
X38237258Y-32022500D01*
%TO.C,C531*%
X75859420Y-25890000D02*
X76140580Y-25890000D01*
X75859420Y-26910000D02*
X76140580Y-26910000D01*
%TO.C,R303*%
X26237258Y-5277500D02*
X25762742Y-5277500D01*
X26237258Y-6322500D02*
X25762742Y-6322500D01*
%TO.C,J401*%
X64415000Y-7400000D02*
X64415000Y-8040000D01*
X64415000Y-9560000D02*
X63785000Y-9560000D01*
X64415000Y-10200000D02*
X64415000Y-9560000D01*
X67135000Y-10150000D02*
X67135000Y-7450000D01*
%TO.C,TP305*%
X18950000Y-19500000D02*
G75*
G02*
X17050000Y-19500000I-950000J0D01*
G01*
X17050000Y-19500000D02*
G75*
G02*
X18950000Y-19500000I950000J0D01*
G01*
%TO.C,D102*%
X31490000Y-36850000D02*
X37000000Y-36850000D01*
X31490000Y-40150000D02*
X31490000Y-36850000D01*
X31490000Y-40150000D02*
X37000000Y-40150000D01*
%TO.C,TP301*%
X7950000Y-6000000D02*
G75*
G02*
X6050000Y-6000000I-950000J0D01*
G01*
X6050000Y-6000000D02*
G75*
G02*
X7950000Y-6000000I950000J0D01*
G01*
%TO.C,C514*%
X82990000Y-29089420D02*
X82990000Y-29370580D01*
X84010000Y-29089420D02*
X84010000Y-29370580D01*
%TO.C,R302*%
X25762742Y-11677500D02*
X26237258Y-11677500D01*
X25762742Y-12722500D02*
X26237258Y-12722500D01*
%TO.C,C152*%
X39490000Y-13834420D02*
X39490000Y-14115580D01*
X40510000Y-13834420D02*
X40510000Y-14115580D01*
%TO.C,R503*%
X12562742Y-32477500D02*
X13037258Y-32477500D01*
X12562742Y-33522500D02*
X13037258Y-33522500D01*
%TO.C,R502*%
X16762742Y-29977500D02*
X17237258Y-29977500D01*
X16762742Y-31022500D02*
X17237258Y-31022500D01*
%TO.C,TP212*%
X81950000Y-7000000D02*
G75*
G02*
X80050000Y-7000000I-950000J0D01*
G01*
X80050000Y-7000000D02*
G75*
G02*
X81950000Y-7000000I950000J0D01*
G01*
%TO.C,C157*%
X35488748Y-20640000D02*
X36911252Y-20640000D01*
X35488748Y-23360000D02*
X36911252Y-23360000D01*
%TO.C,U101*%
X33000000Y-28890000D02*
X31500000Y-28890000D01*
X33000000Y-28890000D02*
X34500000Y-28890000D01*
X33000000Y-32110000D02*
X31500000Y-32110000D01*
X33000000Y-32110000D02*
X34500000Y-32110000D01*
X31027500Y-32265000D02*
X30547500Y-32265000D01*
X30787500Y-31935000D01*
X31027500Y-32265000D01*
G36*
X31027500Y-32265000D02*
G01*
X30547500Y-32265000D01*
X30787500Y-31935000D01*
X31027500Y-32265000D01*
G37*
%TO.C,R523*%
X71922936Y-32665000D02*
X72377064Y-32665000D01*
X71922936Y-34135000D02*
X72377064Y-34135000D01*
%TO.C,R514*%
X83262742Y-34277500D02*
X83737258Y-34277500D01*
X83262742Y-35322500D02*
X83737258Y-35322500D01*
%TO.C,TP508*%
X20750000Y-40000000D02*
G75*
G02*
X18850000Y-40000000I-950000J0D01*
G01*
X18850000Y-40000000D02*
G75*
G02*
X20750000Y-40000000I950000J0D01*
G01*
%TO.C,R501*%
X12562742Y-29977500D02*
X13037258Y-29977500D01*
X12562742Y-31022500D02*
X13037258Y-31022500D01*
%TO.C,R407*%
X45677500Y-15637258D02*
X45677500Y-15162742D01*
X46722500Y-15637258D02*
X46722500Y-15162742D01*
%TO.C,TP201*%
X80950000Y-4000000D02*
G75*
G02*
X79050000Y-4000000I-950000J0D01*
G01*
X79050000Y-4000000D02*
G75*
G02*
X80950000Y-4000000I950000J0D01*
G01*
%TO.C,R108*%
X39762742Y-36477500D02*
X40237258Y-36477500D01*
X39762742Y-37522500D02*
X40237258Y-37522500D01*
%TO.C,R512*%
X83262742Y-35977500D02*
X83737258Y-35977500D01*
X83262742Y-37022500D02*
X83737258Y-37022500D01*
%TO.C,U151*%
X35000000Y-10240000D02*
X32800000Y-10240000D01*
X35000000Y-10240000D02*
X37200000Y-10240000D01*
X35000000Y-15760000D02*
X32800000Y-15760000D01*
X35000000Y-15760000D02*
X37200000Y-15760000D01*
X31430000Y-16160000D02*
X31220000Y-15920000D01*
X31600000Y-15750000D01*
X31430000Y-16160000D01*
G36*
X31430000Y-16160000D02*
G01*
X31220000Y-15920000D01*
X31600000Y-15750000D01*
X31430000Y-16160000D01*
G37*
%TO.C,C521*%
X71640580Y-34990000D02*
X71359420Y-34990000D01*
X71640580Y-36010000D02*
X71359420Y-36010000D01*
%TO.C,TP202*%
X83950000Y-4000000D02*
G75*
G02*
X82050000Y-4000000I-950000J0D01*
G01*
X82050000Y-4000000D02*
G75*
G02*
X83950000Y-4000000I950000J0D01*
G01*
%TO.C,C156*%
X30388748Y-20640000D02*
X31811252Y-20640000D01*
X30388748Y-23360000D02*
X31811252Y-23360000D01*
%TO.C,R524*%
X75837258Y-33677500D02*
X75362742Y-33677500D01*
X75837258Y-34722500D02*
X75362742Y-34722500D01*
%TO.C,TP503*%
X87950000Y-31200000D02*
G75*
G02*
X86050000Y-31200000I-950000J0D01*
G01*
X86050000Y-31200000D02*
G75*
G02*
X87950000Y-31200000I950000J0D01*
G01*
%TD*%
M02*
