M48
; DRILL file {KiCad 9.0.9-9.0.9~ubuntu24.04.1} date 2026-09-14T23:49:27+0000
; FORMAT={-:-/ absolute / metric / decimal}
; #@! TF.CreationDate,2026-09-14T23:49:27+00:00
; #@! TF.GenerationSoftware,Kicad,Pcbnew,9.0.9-9.0.9~ubuntu24.04.1
; #@! TF.FileFunction,Plated,1,4,PTH
FMAT,2
METRIC
; #@! TA.AperFunction,Plated,PTH,ViaDrill
T1C0.200
; #@! TA.AperFunction,Plated,PTH,ViaDrill
T2C0.300
; #@! TA.AperFunction,Plated,PTH,ComponentDrill
T3C1.020
; #@! TA.AperFunction,Plated,PTH,ComponentDrill
T4C1.100
%
G90
G05
T1
X17.4Y-23.5
X17.4Y-27.5
X19.6Y-23.5
X19.6Y-27.5
X21.6Y-28.3
X33.8Y-11.2
X33.85Y-14.7
X35.0Y-11.2
X35.0Y-14.8
X36.2Y-11.2
X36.2Y-14.8
X46.35Y-24.5
X46.35Y-28.5
X47.65Y-24.5
X47.65Y-28.5
X77.47Y-20.375
X77.47Y-20.825
X77.47Y-21.275
X77.47Y-21.725
X77.47Y-22.175
X77.47Y-22.625
X77.47Y-23.075
X77.92Y-20.375
X77.92Y-20.825
X77.92Y-21.275
X77.92Y-21.725
X77.92Y-22.175
X77.92Y-22.625
X77.92Y-23.075
X78.37Y-20.375
X78.37Y-20.825
X78.37Y-21.275
X78.37Y-21.725
X78.37Y-22.175
X78.37Y-22.625
X78.37Y-23.075
X78.82Y-20.375
X78.82Y-20.825
X78.82Y-21.275
X78.82Y-21.725
X78.82Y-22.175
X78.82Y-22.625
X78.82Y-23.075
X79.27Y-20.375
X79.27Y-20.825
X79.27Y-21.275
X79.27Y-21.725
X79.27Y-22.175
X79.27Y-22.625
X79.27Y-23.075
X79.72Y-20.375
X79.72Y-20.825
X79.72Y-21.275
X79.72Y-21.725
X79.72Y-22.175
X79.72Y-22.625
X79.72Y-23.075
X80.17Y-20.375
X80.17Y-20.825
X80.17Y-21.275
X80.17Y-21.725
X80.17Y-22.175
X80.17Y-22.625
T2
X8.1Y-28.25
X8.7Y-25.5
X8.7Y-31.0
X9.811Y-34.419
X10.349Y-31.721
X10.4Y-25.5
X10.439Y-19.099
X11.162Y-32.221
X11.218Y-28.307
X11.518Y-29.073
X13.7Y-20.3
X13.7Y-22.4
X14.5Y-11.6
X14.537Y-17.8
X14.71Y-9.5
X15.7Y-12.2
X15.703Y-21.15
X16.212Y-2.2
X16.425Y-12.7
X17.925Y-6.795
X18.2Y-9.5
X18.775Y-13.7
X18.9Y-7.2
X19.159Y-28.481
X19.212Y-2.2
X19.572Y-29.932
X20.0Y-7.9
X20.0Y-38.8
X20.6Y-7.9
X20.75Y-28.7
X20.8Y-20.0
X20.93Y-36.479
X21.15Y-37.3
X21.199Y-7.401
X21.368Y-39.845
X21.447Y-35.612
X21.5Y-4.5
X21.6Y-17.0
X21.6Y-20.0
X21.8Y-6.8
X22.212Y-3.8
X22.277Y-28.302
X22.3Y-14.2
X22.6Y-46.8
X22.625Y-23.95
X22.98Y-27.239
X23.125Y-11.35
X23.143Y-28.287
X23.6Y-46.8
X23.98Y-5.279
X24.2Y-6.1
X24.275Y-8.865
X24.38Y-27.769
X24.45Y-29.5
X24.552Y-25.744
X24.625Y-32.925
X24.851Y-9.182
X24.927Y-27.222
X25.0Y-34.8
X25.2Y-18.7
X25.2Y-36.575
X25.212Y-3.8
X25.428Y-13.137
X25.8Y-37.4
X25.9Y-9.4
X26.225Y-1.0
X26.3Y-23.0
X26.462Y-38.0
X26.475Y-22.0
X26.95Y-20.9
X26.973Y-7.06
X27.575Y-10.2
X27.7Y-5.2
X27.905Y-25.105
X27.918Y-28.893
X28.212Y-3.8
X28.5Y0.5
X28.6Y6.2
X28.613Y-19.109
X29.1Y-33.14
X29.232Y-12.707
X29.864Y-8.16
X30.1Y-34.0
X30.336Y-11.045
X30.8Y-8.4
X31.0Y-12.0
X31.0Y-36.0
X31.057Y-5.222
X31.212Y-3.8
X31.25Y-20.9
X31.329Y-16.354
X31.401Y-7.799
X31.575Y-22.0
X31.7Y-36.0
X32.0Y7.5
X32.0Y4.0
X32.0Y-41.8
X32.4Y-36.0
X32.979Y-6.639
X33.0Y2.3
X33.335Y-17.009
X33.65Y-23.12
X34.9Y-6.525
X34.9Y-23.35
X35.184Y-17.447
X35.5Y-44.0
X35.75Y-23.4
X35.88Y2.0
X35.9Y-40.5
X36.0Y8.8
X36.15Y-27.05
X36.237Y-1.6
X36.468Y-9.407
X36.825Y-36.212
X37.675Y-24.0
X37.92Y-28.138
X37.995Y-29.759
X38.3Y-8.9
X38.338Y-15.937
X38.6Y-21.6
X38.832Y-37.991
X38.862Y-6.0
X38.875Y-34.2
X39.163Y-12.025
X39.713Y-33.14
X39.812Y-7.961
X39.849Y-19.0
X40.284Y-9.748
X40.5Y8.8
X40.5Y-12.0
X40.7Y-24.8
X40.738Y-22.038
X41.4Y-21.0
X41.6Y-22.725
X41.774Y-24.7
X42.352Y-15.895
X42.352Y-29.95
X42.414Y-12.725
X42.75Y-2.6
X42.75Y-38.6
X43.0Y-6.525
X43.1Y-25.2
X43.2Y-25.8
X43.236Y-27.752
X43.351Y-37.999
X43.4Y-23.0
X43.9Y-12.9
X43.949Y-19.7
X44.3Y-6.8
X44.35Y-22.65
X44.6Y-1.625
X44.837Y-8.956
X45.062Y-46.4
X45.1Y-13.5
X45.2Y-6.1
X45.2Y-7.3
X45.2Y-14.575
X45.207Y-35.182
X45.213Y-15.439
X45.3Y-5.25
X45.3Y-12.75
X45.625Y-19.0
X45.668Y-33.49
X45.7Y-30.3
X45.7Y-39.7
X46.0Y-0.8
X46.146Y-31.25
X46.2Y-29.6
X46.825Y0.1
X46.882Y-22.241
X47.175Y-46.8
X47.238Y-17.33
X47.512Y-32.837
X47.55Y-22.85
X47.6Y-35.975
X47.7Y-31.3
X47.737Y-37.585
X48.714Y-22.097
X49.062Y-46.4
X49.282Y-38.797
X49.8Y-23.6
X50.0Y-41.9
X50.3Y-29.85
X50.851Y-21.532
X50.947Y-27.001
X51.4Y-31.525
X51.615Y-21.231
X52.12Y2.0
X54.1Y-32.4
X54.517Y-24.117
X55.0Y-36.5
X55.9Y-25.4
X57.0Y-24.75
X57.375Y-21.5
X59.25Y-19.85
X59.8Y-25.2
X60.475Y-38.0
X61.69Y-21.0
X62.2Y-17.35
X62.35Y-18.85
X62.35Y-20.35
X62.676Y-16.725
X63.7Y-3.75
X64.2Y-12.8
X64.55Y-18.85
X64.55Y-20.35
X64.648Y-40.034
X64.911Y-23.525
X65.007Y-15.559
X65.256Y-17.049
X65.37Y-20.388
X65.475Y-38.0
X65.504Y-22.961
X65.775Y-6.525
X65.775Y-11.075
X66.055Y-15.3
X66.425Y-18.0
X66.718Y-33.309
X67.084Y-35.795
X67.65Y-19.35
X67.75Y-22.75
X67.8Y-15.525
X68.938Y-30.911
X69.103Y-4.738
X69.357Y-12.276
X69.462Y-36.394
X69.5Y-33.309
X69.707Y-39.907
X70.236Y-18.555
X70.725Y-36.3
X71.0Y-4.79
X71.0Y-7.5
X71.818Y-16.065
X72.0Y-30.2
X72.397Y-16.705
X72.6Y-10.6
X72.6Y-28.2
X73.392Y-10.631
X73.8Y-16.7
X74.24Y-34.911
X74.589Y-6.0
X74.8Y-30.4
X74.991Y-9.0
X75.225Y-25.5
X75.3Y-6.8
X76.05Y-16.7
X76.45Y-15.5
X76.651Y-17.301
X77.429Y-5.8
X77.575Y-26.4
X77.575Y-29.0
X77.6Y6.55
X77.6Y1.5
X77.7Y5.8
X77.7Y-10.8
X77.8Y-33.1
X77.85Y-12.9
X78.0Y-1.0
X78.225Y-36.3
X78.423Y-8.232
X78.5Y-34.0
X78.88Y6.8
X79.1Y-13.0
X79.48Y-18.4
X79.8Y-25.5
X79.85Y-12.9
X80.2Y6.1
X80.215Y-15.462
X80.215Y-16.662
X80.612Y-34.275
X80.75Y-34.9
X80.9Y-0.4
X80.975Y-9.0
X81.0Y3.5
X81.4Y-26.3
X81.499Y-3.616
X81.6Y-0.1
X81.8Y-40.3
X82.728Y-15.535
X82.955Y-26.826
X83.499Y-9.018
X84.0Y-40.4
X84.242Y-24.824
X85.0Y-0.3
X85.0Y-29.1
X85.12Y6.8
X85.125Y-36.5
X85.4Y-26.9
X85.7Y-16.8
X85.9Y-32.95
X85.95Y-34.5
X86.275Y-5.8
X86.3Y-10.025
X86.8Y-3.7
X87.475Y-29.4
X87.565Y-14.25
T3
X8.3Y-8.5
X8.3Y-11.5
X8.3Y-14.5
X8.3Y-17.5
X8.3Y-20.5
X8.3Y-23.5
X11.3Y-8.5
X11.3Y-11.5
X11.3Y-14.5
X11.3Y-17.5
X11.3Y-20.5
X11.3Y-23.5
T4
X6.0Y-38.5
X8.54Y-38.5
X13.0Y-38.5
X15.54Y-38.5
M30
